<svg width="556" height="590" viewBox="0 0 556 590" fill="none" xmlns="http://www.w3.org/2000/svg">
<path fill-rule="evenodd" clip-rule="evenodd" d="M224.165 76.807C292.704 50.9002 370.175 27.7948 427.6 47.0342C487.7 67.17 503.475 119.361 504.697 170.796C505.986 225.061 497.576 287.09 434.342 330.766C371.823 373.946 286.336 376.279 212.102 372.888C145.462 369.844 83.6649 353.494 56.8715 313.522C31.1505 275.15 48.6705 224.201 81.3972 177.894C112.18 134.337 163.515 99.7319 224.165 76.807Z" fill="#3878FF" fill-opacity="0.1"/>
<path fill-rule="evenodd" clip-rule="evenodd" d="M338.952 460.9C283.634 474.853 221.558 485.139 178.197 460.47C132.816 434.651 124.326 386.221 127.126 340.383C130.079 292.024 141.16 238.051 193.638 207.618C245.523 177.53 312.333 186.749 369.953 199.565C421.679 211.07 468.659 233.751 486.629 272.786C503.88 310.259 486.506 353.189 457.617 389.988C430.443 424.603 387.902 448.553 338.952 460.9Z" fill="#3878FF" fill-opacity="0.1"/>
<path fill-rule="evenodd" clip-rule="evenodd" d="M408.93 250.877C408.6 295.004 403.14 343.324 369.149 369.975C333.575 397.867 285.617 393.365 242.879 381.07C197.791 368.099 149.375 347.851 133.398 302.155C117.603 256.976 142.7 209.495 168.954 169.629C192.522 133.841 225.515 104.064 266.895 99.4419C306.619 95.005 343.033 117.458 370.818 147.082C396.954 174.947 409.223 211.829 408.93 250.877Z" fill="#3878FF" fill-opacity="0.1"/>
<path fill-rule="evenodd" clip-rule="evenodd" d="M189.467 213.302C247.27 190.639 312.976 171.403 363.853 194.708C417.1 219.097 433.879 273.948 438.012 327.149C442.371 383.276 438.795 446.844 386.647 488.178C335.089 529.043 261.201 526.344 196.715 518.405C138.825 511.278 84.3347 490.698 58.744 447.809C34.1777 406.637 46.3044 355.059 71.8769 309.184C95.9308 266.033 138.316 233.357 189.467 213.302Z" fill="#3878FF" fill-opacity="0.1"/>
</svg>
