<svg width="70" height="70" viewBox="0 0 70 70" fill="none" xmlns="http://www.w3.org/2000/svg">
<path fill-rule="evenodd" clip-rule="evenodd" d="M34.0877 69.6985C44.7269 70.5212 56.4781 70.1484 63.5722 62.2034C70.9968 53.8883 70.861 41.8146 68.7441 30.8855C66.5108 19.3552 62.5898 6.84416 51.8952 1.91539C41.3216 -2.95759 29.384 2.33829 19.2586 8.07933C10.169 13.2331 2.34114 20.8647 0.408701 31.1078C-1.44639 40.9409 3.24328 50.4985 9.83171 58.0478C16.0289 65.1487 24.6731 68.9704 34.0877 69.6985Z" fill="#FF5B62"/>
<path d="M57.385 22.33H21.615C21.4201 22.33 21.2331 22.4074 21.0953 22.5452C20.9574 22.6831 20.88 22.87 20.88 23.065V46.585C20.88 46.7799 20.9574 46.9668 21.0953 47.1047C21.2331 47.2425 21.4201 47.32 21.615 47.32H31.8609L24.0209 55.16C23.8833 55.2978 23.806 55.4846 23.806 55.6794C23.806 55.8741 23.8833 56.0609 24.0209 56.1988L27.1912 59.3691C27.329 59.5067 27.5158 59.584 27.7106 59.584C27.9054 59.584 28.0922 59.5067 28.23 59.3691L40.2791 47.32H57.385C57.5799 47.32 57.7669 47.2425 57.9047 47.1047C58.0426 46.9668 58.12 46.7799 58.12 46.585V23.065C58.12 22.87 58.0426 22.6831 57.9047 22.5452C57.7669 22.4074 57.5799 22.33 57.385 22.33ZM27.74 57.7962L25.5938 55.65L42.6458 38.598L46.2424 37.128L44.7724 40.7246L27.74 57.7962ZM56.65 45.85H41.7491L45.9239 41.6752C45.9933 41.6067 46.0483 41.5251 46.0856 41.4351L48.2661 36.0843C48.3316 35.9471 48.353 35.793 48.3273 35.6432C48.3016 35.4934 48.2301 35.3552 48.1226 35.2478C48.0151 35.1403 47.877 35.0688 47.7272 35.0431C47.5773 35.0174 47.4233 35.0388 47.2861 35.1043L41.95 37.3044C41.8601 37.3419 41.7785 37.3969 41.7099 37.4661L33.3309 45.85H22.35V23.8H56.65V45.85Z" fill="white"/>
<path d="M51.26 33.6C51.9383 33.6 52.6015 33.3988 53.1656 33.0219C53.7296 32.645 54.1693 32.1093 54.4289 31.4826C54.6885 30.8558 54.7564 30.1662 54.624 29.5008C54.4917 28.8355 54.165 28.2243 53.6853 27.7446C53.2056 27.2649 52.5945 26.9382 51.9291 26.8059C51.2638 26.6736 50.5741 26.7415 49.9474 27.0011C49.3206 27.2607 48.7849 27.7003 48.408 28.2644C48.0311 28.8284 47.83 29.4916 47.83 30.17C47.83 31.0797 48.1913 31.9521 48.8346 32.5954C49.4778 33.2386 50.3503 33.6 51.26 33.6ZM51.26 28.21C51.6476 28.21 52.0266 28.3249 52.3489 28.5403C52.6712 28.7557 52.9224 29.0618 53.0708 29.4199C53.2191 29.7781 53.2579 30.1722 53.1823 30.5524C53.1067 30.9326 52.92 31.2818 52.6459 31.5559C52.3718 31.83 52.0225 32.0167 51.6423 32.0923C51.2621 32.168 50.868 32.1291 50.5099 31.9808C50.1518 31.8324 49.8456 31.5812 49.6303 31.2589C49.4149 30.9366 49.3 30.5576 49.3 30.17C49.3 29.6502 49.5065 29.1516 49.874 28.7841C50.2416 28.4165 50.7401 28.21 51.26 28.21Z" fill="white"/>
<path d="M25.29 42.9099H31.7139C31.9089 42.9099 32.0958 42.8324 32.2336 42.6946C32.3715 42.5568 32.4489 42.3698 32.4489 42.1749C32.4489 41.9799 32.3715 41.793 32.2336 41.6552C32.0958 41.5173 31.9089 41.4399 31.7139 41.4399H26.6473L35.2223 28.3275L39.3726 34.673C39.4237 34.7573 39.4913 34.8305 39.5713 34.8882C39.6513 34.9458 39.7421 34.9868 39.8382 35.0087C39.9344 35.0306 40.034 35.0329 40.131 35.0154C40.2281 34.998 40.3206 34.9612 40.4032 34.9073C40.4858 34.8534 40.5566 34.7834 40.6116 34.7015C40.6665 34.6196 40.7044 34.5275 40.723 34.4306C40.7416 34.3338 40.7405 34.2342 40.7198 34.1377C40.6991 34.0413 40.6592 33.9501 40.6025 33.8694L35.8397 26.5831C35.7687 26.4868 35.676 26.4086 35.5692 26.3547C35.4624 26.3008 35.3444 26.2727 35.2248 26.2727C35.1051 26.2727 34.9872 26.3008 34.8804 26.3547C34.7735 26.4086 34.6809 26.4868 34.6098 26.5831L24.6726 41.7731C24.6001 41.8841 24.559 42.0127 24.5537 42.1452C24.5483 42.2777 24.5789 42.4091 24.6422 42.5257C24.7055 42.6422 24.7991 42.7394 24.9131 42.8071C25.0272 42.8747 25.1574 42.9102 25.29 42.9099Z" fill="white"/>
</svg>
