<svg width="70" height="70" viewBox="0 0 70 70" fill="none" xmlns="http://www.w3.org/2000/svg">
<path fill-rule="evenodd" clip-rule="evenodd" d="M34.0877 69.6985C44.7269 70.5212 56.4781 70.1484 63.5722 62.2034C70.9968 53.8883 70.861 41.8146 68.7441 30.8855C66.5108 19.3552 62.5898 6.84416 51.8952 1.91539C41.3216 -2.95759 29.384 2.33829 19.2586 8.07933C10.169 13.2331 2.34114 20.8647 0.408701 31.1078C-1.44639 40.9409 3.24328 50.4985 9.83171 58.0478C16.0289 65.1487 24.6731 68.9704 34.0877 69.6985Z" fill="#FF5B62"/>
<path d="M31.8251 48.7101H18.3501V27.6401H50.2001V30.3351C50.2001 30.5301 50.2775 30.717 50.4153 30.8548C50.5532 30.9927 50.7401 31.0701 50.9351 31.0701C51.13 31.0701 51.317 30.9927 51.4548 30.8548C51.5926 30.717 51.6701 30.5301 51.6701 30.3351V20.0451C51.6701 19.8502 51.5926 19.6632 51.4548 19.5254C51.317 19.3876 51.13 19.3101 50.9351 19.3101H17.6151C17.4201 19.3101 17.2332 19.3876 17.0953 19.5254C16.9575 19.6632 16.8801 19.8502 16.8801 20.0451V49.4451C16.8801 49.6401 16.9575 49.827 17.0953 49.9648C17.2332 50.1027 17.4201 50.1801 17.6151 50.1801H31.8251C32.02 50.1801 32.207 50.1027 32.3448 49.9648C32.4826 49.827 32.5601 49.6401 32.5601 49.4451C32.5601 49.2502 32.4826 49.0632 32.3448 48.9254C32.207 48.7876 32.02 48.7101 31.8251 48.7101ZM50.2001 20.7801V26.1701H18.3501V20.7801H50.2001Z" fill="white"/>
<path d="M21.0451 24.2099H23.4951C23.6901 24.2099 23.877 24.1325 24.0148 23.9947C24.1527 23.8568 24.2301 23.6699 24.2301 23.4749C24.2301 23.28 24.1527 23.093 24.0148 22.9552C23.877 22.8174 23.6901 22.7399 23.4951 22.7399H21.0451C20.8502 22.7399 20.6632 22.8174 20.5254 22.9552C20.3876 23.093 20.3101 23.28 20.3101 23.4749C20.3101 23.6699 20.3876 23.8568 20.5254 23.9947C20.6632 24.1325 20.8502 24.2099 21.0451 24.2099Z" fill="white"/>
<path d="M26.435 24.2099H28.885C29.0799 24.2099 29.2669 24.1325 29.4047 23.9947C29.5426 23.8568 29.62 23.6699 29.62 23.4749C29.62 23.28 29.5426 23.093 29.4047 22.9552C29.2669 22.8174 29.0799 22.7399 28.885 22.7399H26.435C26.2401 22.7399 26.0531 22.8174 25.9153 22.9552C25.7774 23.093 25.7 23.28 25.7 23.4749C25.7 23.6699 25.7774 23.8568 25.9153 23.9947C26.0531 24.1325 26.2401 24.2099 26.435 24.2099Z" fill="white"/>
<path d="M43.8301 37.9301C42.8609 37.9301 41.9136 38.2174 41.1078 38.7559C40.302 39.2943 39.6739 40.0595 39.303 40.9549C38.9322 41.8503 38.8351 42.8355 39.0242 43.786C39.2133 44.7365 39.68 45.6096 40.3652 46.2949C41.0505 46.9802 41.9236 47.4468 42.8741 47.6359C43.8246 47.825 44.8098 47.7279 45.7052 47.3571C46.6006 46.9862 47.3658 46.3581 47.9043 45.5523C48.4427 44.7465 48.7301 43.7992 48.7301 42.8301C48.7301 41.5305 48.2138 40.2842 47.2949 39.3652C46.376 38.4463 45.1296 37.9301 43.8301 37.9301ZM43.8301 46.2601C43.1517 46.2601 42.4885 46.0589 41.9244 45.682C41.3604 45.3051 40.9208 44.7694 40.6611 44.1427C40.4015 43.5159 40.3336 42.8262 40.466 42.1609C40.5983 41.4955 40.925 40.8844 41.4047 40.4047C41.8844 39.925 42.4955 39.5983 43.1609 39.466C43.8263 39.3336 44.5159 39.4015 45.1427 39.6611C45.7694 39.9208 46.3051 40.3604 46.682 40.9244C47.0589 41.4885 47.2601 42.1517 47.2601 42.8301C47.2601 43.7397 46.8987 44.6122 46.2554 45.2554C45.6122 45.8987 44.7397 46.2601 43.8301 46.2601Z" fill="white"/>
<path d="M54.9629 40.2086L52.1601 39.7823C52.017 39.3429 51.8401 38.9154 51.6309 38.5034L53.3165 36.2151C53.4273 36.0715 53.4812 35.8919 53.4676 35.711C53.454 35.5301 53.374 35.3606 53.243 35.2351L50.9106 32.9027C50.7851 32.7716 50.6156 32.6916 50.4347 32.6781C50.2537 32.6645 50.0742 32.7183 49.9306 32.8292L47.6521 34.5099C47.2423 34.3114 46.8181 34.1443 46.383 34.0101L45.9616 31.2171C45.9379 31.0413 45.8515 30.8799 45.7182 30.7629C45.5849 30.6458 45.4138 30.5809 45.2364 30.5801H41.9338C41.7578 30.5805 41.5879 30.6441 41.4548 30.7591C41.3218 30.8742 41.2344 31.0332 41.2086 31.2073L40.7872 34.0101C40.3444 34.1544 39.9135 34.333 39.4985 34.5442L37.22 32.8635C37.0764 32.7526 36.8968 32.6988 36.7159 32.7124C36.535 32.7259 36.3655 32.8059 36.24 32.937L33.9076 35.2694C33.7765 35.3949 33.6965 35.5644 33.683 35.7453C33.6694 35.9262 33.7232 36.1058 33.8341 36.2494L35.5197 38.5377C35.3188 38.9392 35.1485 39.3552 35.0101 39.7823L32.1975 40.2086C32.0252 40.2365 31.8685 40.3248 31.7554 40.4576C31.6423 40.5905 31.5802 40.7593 31.5801 40.9338V44.2364C31.5805 44.4123 31.6441 44.5823 31.7591 44.7153C31.8742 44.8484 32.0332 44.9358 32.2073 44.9616L35.0346 45.3879C35.1771 45.8188 35.3524 46.2381 35.5589 46.6423L33.8586 48.9453C33.7477 49.0889 33.6939 49.2684 33.7075 49.4494C33.721 49.6303 33.801 49.7998 33.9321 49.9253L36.2645 52.2577C36.39 52.3887 36.5595 52.4687 36.7404 52.4823C36.9213 52.4959 37.1009 52.442 37.2445 52.3312L39.5573 50.626C39.9586 50.8285 40.3747 51.0005 40.8019 51.1405L41.2331 53.9825C41.2623 54.1489 41.3479 54.3001 41.4755 54.4108C41.6031 54.5214 41.7649 54.5847 41.9338 54.5901H45.2364C45.4123 54.5896 45.5823 54.5261 45.7153 54.411C45.8484 54.2959 45.9358 54.1369 45.9616 53.9629L46.3928 51.1209C46.82 50.9809 47.236 50.8089 47.6374 50.6064L49.9502 52.3116C50.0938 52.4224 50.2733 52.4763 50.4543 52.4627C50.6352 52.4491 50.8047 52.3691 50.9302 52.2381L53.2626 49.9057C53.3936 49.7802 53.4736 49.6107 53.4872 49.4298C53.5008 49.2488 53.4469 49.0693 53.3361 48.9257L51.6358 46.6227C51.8413 46.2248 52.0166 45.8121 52.1601 45.3879L54.9874 44.9616C55.1569 44.9306 55.3102 44.8409 55.4203 44.7084C55.5305 44.5758 55.5906 44.4087 55.5901 44.2364V40.9338C55.5896 40.7578 55.5261 40.5879 55.411 40.4548C55.2959 40.3218 55.1369 40.2344 54.9629 40.2086ZM54.1201 43.6043L51.4594 44.0061C51.3187 44.0277 51.1874 44.0896 51.0813 44.1845C50.9751 44.2793 50.8988 44.4028 50.8616 44.5402C50.6909 45.1696 50.4388 45.7742 50.1119 46.3385C50.0403 46.4622 50.0063 46.6041 50.0142 46.7469C50.022 46.8896 50.0713 47.0269 50.156 47.1421L51.7583 49.3128L50.3177 50.7534L48.1372 49.1462C48.022 49.0615 47.8847 49.0122 47.742 49.0044C47.5992 48.9965 47.4573 49.0305 47.3336 49.1021C46.772 49.4251 46.1708 49.6738 45.5451 49.842C45.4077 49.8792 45.2842 49.9555 45.1894 50.0617C45.0945 50.1678 45.0326 50.2991 45.011 50.4398L44.6043 53.1201H42.5659L42.1592 50.4398C42.1376 50.2991 42.0756 50.1678 41.9808 50.0617C41.886 49.9555 41.7624 49.8792 41.6251 49.842C40.9994 49.6738 40.3982 49.4251 39.8366 49.1021C39.7129 49.0305 39.5709 48.9965 39.4282 49.0044C39.2855 49.0122 39.1481 49.0615 39.033 49.1462L36.8525 50.7534L35.4119 49.3128L37.0191 47.1421C37.1038 47.0269 37.1531 46.8896 37.1609 46.7469C37.1687 46.6041 37.1348 46.4622 37.0632 46.3385C36.7362 45.7742 36.4842 45.1696 36.3135 44.5402C36.2762 44.4028 36.1999 44.2793 36.0938 44.1845C35.9877 44.0896 35.8563 44.0277 35.7157 44.0061L33.0501 43.6043V41.5659L35.701 41.1641C35.8431 41.143 35.976 41.0807 36.0831 40.9849C36.1902 40.8891 36.2669 40.764 36.3037 40.6251C36.4725 39.9888 36.7246 39.3775 37.0534 38.8072C37.125 38.6835 37.1589 38.5415 37.1511 38.3988C37.1433 38.2561 37.094 38.1187 37.0093 38.0036L35.4217 35.8525L36.8623 34.4119L39.0085 35.9946C39.1236 36.0793 39.261 36.1286 39.4037 36.1364C39.5464 36.1442 39.6884 36.1103 39.8121 36.0387C40.385 35.7058 40.9996 35.4504 41.6398 35.2792C41.7787 35.2424 41.9038 35.1657 41.9996 35.0586C42.0954 34.9515 42.1577 34.8186 42.1788 34.6765L42.5659 32.0501H44.6043L45.0012 34.6814C45.0223 34.8235 45.0846 34.9564 45.1804 35.0635C45.2762 35.1706 45.4013 35.2473 45.5402 35.2841C46.1803 35.4553 46.7949 35.7107 47.3679 36.0436C47.4914 36.1158 47.6334 36.1501 47.7763 36.1423C47.9192 36.1344 48.0566 36.0848 48.1715 35.9995L50.3177 34.4168L51.7583 35.8574L50.1707 38.0085C50.086 38.1236 50.0367 38.261 50.0289 38.4037C50.021 38.5464 50.055 38.6884 50.1266 38.8121C50.4554 39.3824 50.7074 39.9937 50.8763 40.63C50.913 40.7689 50.9897 40.894 51.0968 40.9898C51.204 41.0856 51.3368 41.1479 51.479 41.169L54.1299 41.5708L54.1201 43.6043Z" fill="white"/>
</svg>
