<svg width="70" height="70" viewBox="0 0 70 70" fill="none" xmlns="http://www.w3.org/2000/svg">
<path fill-rule="evenodd" clip-rule="evenodd" d="M34.0877 69.6985C44.7269 70.5212 56.4781 70.1484 63.5722 62.2034C70.9968 53.8883 70.861 41.8146 68.7441 30.8855C66.5108 19.3552 62.5898 6.84416 51.8952 1.91539C41.3216 -2.95759 29.384 2.33829 19.2586 8.07933C10.169 13.2331 2.34114 20.8647 0.408701 31.1078C-1.44639 40.9409 3.24328 50.4985 9.83171 58.0478C16.0289 65.1487 24.6731 68.9704 34.0877 69.6985Z" fill="#FF5B62"/>
<path d="M49.0436 22.0344C47.766 22.0345 46.5019 22.2963 45.3294 22.8037C45.0068 19.7425 43.556 16.911 41.2597 14.861C38.9633 12.8111 35.986 11.6896 32.9079 11.715C26.0479 11.715 20.4374 17.1883 20.4374 23.916C20.4373 24.6725 20.5095 25.4273 20.653 26.17C19.6789 25.9697 18.6734 25.9775 17.7025 26.193C16.7316 26.4085 15.8172 26.8269 15.0194 27.4205C14.2215 28.0142 13.5582 28.7699 13.0728 29.6379C12.5875 30.506 12.2911 31.4668 12.2032 32.4574C12.1152 33.4481 12.2377 34.4461 12.5625 35.3861C12.8874 36.326 13.4072 37.1867 14.0881 37.9117C14.7689 38.6366 15.5952 39.2095 16.513 39.5926C17.4307 39.9758 18.4191 40.1606 19.4133 40.135H19.6583C19.8532 40.135 20.0402 40.0576 20.178 39.9197C20.3158 39.7819 20.3933 39.595 20.3933 39.4C20.3933 39.2051 20.3158 39.0181 20.178 38.8803C20.0402 38.7425 19.8532 38.665 19.6583 38.665H19.4133C18.6674 38.6871 17.9247 38.5593 17.2291 38.2892C16.5336 38.019 15.8993 37.612 15.3639 37.0923C14.8285 36.5725 14.4029 35.9506 14.1122 35.2633C13.8216 34.5761 13.6718 33.8375 13.6718 33.0913C13.6718 32.3451 13.8216 31.6065 14.1122 30.9192C14.4029 30.232 14.8285 29.6101 15.3639 29.0903C15.8993 28.5705 16.5336 28.1635 17.2291 27.8934C17.9247 27.6232 18.6674 27.4954 19.4133 27.5175C20.0955 27.519 20.7721 27.6401 21.4125 27.8752C21.541 27.9224 21.6802 27.9327 21.8143 27.905C21.9484 27.8773 22.0721 27.8126 22.1714 27.7184C22.2708 27.6241 22.3418 27.504 22.3765 27.3716C22.4113 27.2391 22.4083 27.0996 22.368 26.9687C22.0644 25.9778 21.9092 24.9475 21.9074 23.9111C21.9074 17.9919 26.8417 13.1801 32.9079 13.1801C38.9741 13.1801 43.9084 17.9968 43.9084 23.8915C43.9084 23.8915 43.9084 23.9601 43.9084 23.9797C43.9081 24.1098 43.9424 24.2376 44.0078 24.3502C44.0731 24.4627 44.1671 24.5558 44.2802 24.6201C44.3933 24.6844 44.5215 24.7175 44.6516 24.716C44.7817 24.7146 44.909 24.6786 45.0207 24.6118C46.2395 23.8877 47.6308 23.5052 49.0485 23.5044C50.0542 23.4682 51.0571 23.6328 51.9985 23.9885C52.94 24.3443 53.8011 24.884 54.5316 25.5763C55.2621 26.2685 55.8474 27.0994 56.2532 28.0204C56.659 28.9413 56.8772 29.9339 56.8951 30.9402C56.913 31.9464 56.7302 32.9461 56.3574 33.8809C55.9847 34.8158 55.4293 35.6669 54.7239 36.3847C54.0185 37.1025 53.1771 37.6726 52.249 38.0616C51.3208 38.4506 50.3244 38.6507 49.318 38.6503H49.2004H46.3241C46.1291 38.6503 45.9422 38.7278 45.8044 38.8656C45.6665 39.0034 45.5891 39.1904 45.5891 39.3853C45.5891 39.5803 45.6665 39.7672 45.8044 39.905C45.9422 40.0429 46.1291 40.1203 46.3241 40.1203H49.3376C49.3945 40.1272 49.4521 40.1272 49.5091 40.1203C51.9061 40.0586 54.1805 39.0472 55.8318 37.3086C57.4831 35.57 58.3761 33.2466 58.3144 30.8495C58.2526 28.4525 57.2412 26.1781 55.5026 24.5268C53.764 22.8755 51.4406 21.9825 49.0436 22.0442V22.0344Z" fill="white"/>
<path d="M47.2307 48.1907L42.6051 52.8163V31.0701C42.6051 30.8751 42.5277 30.6882 42.3898 30.5504C42.252 30.4125 42.065 30.3351 41.8701 30.3351C41.6752 30.3351 41.4882 30.4125 41.3504 30.5504C41.2125 30.6882 41.1351 30.8751 41.1351 31.0701V52.8163L36.5095 48.1907C36.4422 48.1185 36.3611 48.0605 36.2709 48.0204C36.1807 47.9802 36.0834 47.9586 35.9847 47.9569C35.886 47.9551 35.788 47.9733 35.6965 48.0102C35.605 48.0472 35.5218 48.1022 35.452 48.172C35.3822 48.2418 35.3272 48.325 35.2902 48.4165C35.2533 48.508 35.2351 48.606 35.2369 48.7047C35.2386 48.8034 35.2602 48.9007 35.3004 48.9909C35.3406 49.081 35.3985 49.1622 35.4707 49.2295L41.3507 55.1095C41.4885 55.2471 41.6753 55.3244 41.8701 55.3244C42.0649 55.3244 42.2517 55.2471 42.3895 55.1095L48.2695 49.2295C48.3993 49.0901 48.47 48.9059 48.4666 48.7155C48.4633 48.525 48.3861 48.3434 48.2515 48.2087C48.1168 48.074 47.9351 47.9969 47.7447 47.9935C47.5543 47.9902 47.37 48.0609 47.2307 48.1907Z" fill="white"/>
<path d="M35.5293 36.4307L29.6493 30.5507C29.5115 30.4131 29.3246 30.3358 29.1299 30.3358C28.9351 30.3358 28.7483 30.4131 28.6105 30.5507L22.7305 36.4307C22.6006 36.57 22.53 36.7543 22.5333 36.9447C22.5367 37.1352 22.6138 37.3168 22.7485 37.4515C22.8831 37.5862 23.0648 37.6633 23.2552 37.6667C23.4457 37.67 23.6299 37.5993 23.7693 37.4695L28.3949 32.8439V54.5901C28.3949 54.785 28.4723 54.972 28.6101 55.1098C28.748 55.2477 28.9349 55.3251 29.1299 55.3251C29.3248 55.3251 29.5118 55.2477 29.6496 55.1098C29.7874 54.972 29.8649 54.785 29.8649 54.5901V32.8439L34.4905 37.4695C34.6298 37.5993 34.8141 37.67 35.0045 37.6667C35.1949 37.6633 35.3766 37.5862 35.5113 37.4515C35.6459 37.3168 35.7231 37.1352 35.7264 36.9447C35.7298 36.7543 35.6591 36.57 35.5293 36.4307Z" fill="white"/>
<path d="M39.219 22.0148C39.2977 22.1781 39.4341 22.3064 39.6017 22.3753C39.7694 22.4442 39.9566 22.4486 40.1274 22.3879C40.2981 22.3271 40.4404 22.2054 40.5269 22.0461C40.6134 21.8867 40.6379 21.7011 40.5959 21.5248C40.038 19.9632 39.0163 18.6092 37.6678 17.6442C36.3192 16.6792 34.708 16.1491 33.0499 16.125C32.8549 16.125 32.668 16.2024 32.5302 16.3403C32.3923 16.4781 32.3149 16.6651 32.3149 16.86C32.3149 17.0549 32.3923 17.2419 32.5302 17.3797C32.668 17.5176 32.8549 17.595 33.0499 17.595C34.4057 17.6166 35.7227 18.0512 36.825 18.841C37.9273 19.6307 38.7625 20.7379 39.219 22.0148Z" fill="white"/>
</svg>
