<svg width="70" height="70" viewBox="0 0 70 70" fill="none" xmlns="http://www.w3.org/2000/svg">
<path fill-rule="evenodd" clip-rule="evenodd" d="M34.0877 69.6985C44.7269 70.5212 56.4781 70.1484 63.5722 62.2034C70.9968 53.8883 70.861 41.8146 68.7441 30.8855C66.5108 19.3552 62.5898 6.84416 51.8952 1.91539C41.3216 -2.95759 29.384 2.33829 19.2586 8.07933C10.169 13.2331 2.34114 20.8647 0.408701 31.1078C-1.44639 40.9409 3.24328 50.4985 9.83171 58.0478C16.0289 65.1487 24.6731 68.9704 34.0877 69.6985Z" fill="#FF5B62"/>
<path d="M51.1061 17.404C50.7434 17.0422 50.3072 16.7626 49.827 16.5842C49.3467 16.4058 48.8338 16.3328 48.3229 16.3701C42.3575 16.8167 36.7535 19.4003 32.54 23.6466L31.9863 24.2101H24.7637C24.666 24.2102 24.5693 24.2297 24.4793 24.2676C24.3893 24.3054 24.3077 24.3608 24.2394 24.4306L16.5807 32.2706C16.4794 32.3739 16.4108 32.5048 16.3837 32.647C16.3565 32.7891 16.3718 32.9361 16.4278 33.0695C16.4838 33.2029 16.5779 33.3168 16.6984 33.397C16.8188 33.4771 16.9603 33.52 17.105 33.5201H24.1512L26.0377 35.4066C23.1754 35.5116 20.4617 36.7072 18.4525 38.7484C12.45 44.8244 17.1785 51.7579 17.2275 51.8265C17.317 51.9548 17.4452 52.0512 17.5933 52.1016C17.7414 52.152 17.9018 52.1539 18.051 52.1068C18.2002 52.0598 18.3306 51.9664 18.4231 51.8402C18.5155 51.714 18.5653 51.5616 18.5652 51.4051C18.5652 49.0482 20.7751 46.8138 23.1075 46.8138C24.2273 46.8203 25.2988 47.2707 26.087 48.0662C26.8751 48.8617 27.3156 49.9374 27.3117 51.0572C27.3139 51.19 27.3522 51.3198 27.4224 51.4326C27.4925 51.5455 27.592 51.6372 27.7101 51.698C27.8282 51.7589 27.9606 51.7865 28.0932 51.7781C28.2259 51.7696 28.3537 51.7254 28.4632 51.6501C29.8757 50.5539 31.0207 49.1511 31.8118 47.5476C32.603 45.9442 33.0195 44.182 33.03 42.394L34.99 44.354V51.4051C34.9901 51.5504 35.0333 51.6923 35.114 51.8131C35.1948 51.9338 35.3095 52.028 35.4438 52.0835C35.578 52.1391 35.7257 52.1537 35.8682 52.1254C36.0107 52.097 36.1416 52.0271 36.2444 51.9245L44.0844 44.0845C44.2199 43.9492 44.2972 43.7664 44.3 43.5749V36.5238L44.8635 35.9701C49.1097 31.7565 51.6934 26.1525 52.14 20.1872C52.1773 19.6763 52.1043 19.1633 51.9259 18.6831C51.7475 18.2029 51.4679 17.7666 51.1061 17.404ZM25.0724 25.6801H30.5163L24.1463 32.0501H18.8494L25.0724 25.6801ZM28.5906 49.6068C28.2745 48.3906 27.5647 47.3132 26.5719 46.5429C25.5791 45.7726 24.3592 45.3527 23.1026 45.3487C20.6918 45.3487 18.4476 47.0441 17.5264 49.2687C16.6689 47.1274 15.978 43.3397 19.4864 39.797C20.5274 38.7383 21.7965 37.9315 23.1968 37.4381C24.5972 36.9447 26.0918 36.7778 27.5665 36.9501L31.4865 40.8701C31.6848 42.4501 31.5278 44.0545 31.0268 45.566C30.5257 47.0776 29.6934 48.4581 28.5906 49.6068ZM42.83 43.2711L36.46 49.6411V44.3638L42.83 37.9938V43.2711ZM43.81 34.9411L43.0456 35.7055L43.0211 35.73L35.725 43.0163L25.4938 32.7851L32.7997 25.4792L32.8242 25.4547L33.5886 24.7001C37.5477 20.7025 42.8157 18.2668 48.4258 17.8401C48.7272 17.8131 49.031 17.8525 49.3156 17.9558C49.6001 18.059 49.8585 18.2234 50.0726 18.4375C50.2866 18.6515 50.4511 18.9099 50.5543 19.1945C50.6575 19.479 50.697 19.7828 50.67 20.0843C50.2432 25.6944 47.8075 30.9624 43.81 34.9215V34.9411Z" fill="white"/>
<path d="M41.1149 23.23C40.038 23.2306 38.9946 23.6045 38.1625 24.2881C37.3303 24.9717 36.761 25.9227 36.5514 26.9791C36.3418 28.0354 36.505 29.1317 37.0131 30.0813C37.5212 31.0308 38.3428 31.7748 39.3379 32.1865C40.333 32.5981 41.4401 32.652 42.4706 32.339C43.501 32.0259 44.391 31.3653 44.9889 30.4696C45.5869 29.5739 45.8558 28.4986 45.7498 27.4269C45.6438 26.3552 45.1695 25.3534 44.4077 24.5922C43.9762 24.1587 43.463 23.8151 42.8978 23.5813C42.3326 23.3475 41.7266 23.2281 41.1149 23.23ZM43.3689 30.139C42.8484 30.6604 42.1631 30.9853 41.4299 31.0581C40.6967 31.131 39.9609 30.9474 39.3479 30.5386C38.7349 30.1298 38.2825 29.5211 38.068 28.8162C37.8534 28.1113 37.8899 27.3538 38.1712 26.6728C38.4525 25.9918 38.9612 25.4294 39.6106 25.0814C40.2601 24.7334 41.0101 24.6213 41.7329 24.7643C42.4557 24.9072 43.1066 25.2964 43.5747 25.8654C44.0428 26.4345 44.2991 27.1482 44.2999 27.885C44.3015 28.3036 44.22 28.7184 44.0602 29.1053C43.9004 29.4922 43.6655 29.8435 43.3689 30.139Z" fill="white"/>
</svg>
