<svg width="70" height="70" viewBox="0 0 70 70" fill="none" xmlns="http://www.w3.org/2000/svg">
<path fill-rule="evenodd" clip-rule="evenodd" d="M34.0877 69.6985C44.7269 70.5212 56.4781 70.1484 63.5722 62.2034C70.9968 53.8883 70.861 41.8146 68.7441 30.8855C66.5108 19.3552 62.5898 6.84416 51.8952 1.91539C41.3216 -2.95759 29.384 2.33829 19.2586 8.07933C10.169 13.2331 2.34114 20.8647 0.408701 31.1078C-1.44639 40.9409 3.24328 50.4985 9.83171 58.0478C16.0289 65.1487 24.6731 68.9704 34.0877 69.6985Z" fill="#FF5B62"/>
<path d="M25.8614 45.5926C25.8614 48.1258 27.8525 50.1873 30.3003 50.1873C32.7481 50.1873 34.7393 48.1258 34.7393 45.5926C34.7393 43.0594 32.7481 40.9979 30.3003 40.9979C27.8525 40.9979 25.8614 43.0589 25.8614 45.5926ZM33.2802 45.5926C33.2802 47.2932 31.9432 48.6771 30.3003 48.6771C28.6574 48.6771 27.3204 47.2932 27.3204 45.5926C27.3204 43.8921 28.6574 42.5082 30.3003 42.5082C31.9432 42.5082 33.2802 43.8921 33.2802 45.5926Z" fill="white"/>
<path d="M60.8782 28.4341C60.5776 28.1567 60.1171 28.1834 59.8481 28.4945L49.252 40.7794L43.797 35.1331C43.512 34.8381 43.0505 34.8381 42.7655 35.1331C42.4805 35.4281 42.4805 35.9058 42.7655 36.2008L48.7666 42.412C48.9037 42.554 49.089 42.633 49.2826 42.633C49.2894 42.633 49.2962 42.633 49.303 42.6325C49.5034 42.6265 49.6931 42.5358 49.8268 42.3808L60.9371 29.4999C61.205 29.1892 61.1788 28.7115 60.8782 28.4341Z" fill="white"/>
<path d="M49.5341 44.5213C49.1309 44.5213 48.8045 44.8596 48.8045 45.2765V52.791H22.9724V17.5518H48.8045V33.3727C48.8045 33.7895 49.1309 34.1278 49.5341 34.1278C49.9373 34.1278 50.2636 33.7895 50.2636 33.3727V16.7966C50.2636 16.3798 49.9373 16.0415 49.5341 16.0415H22.2429C21.8397 16.0415 21.5134 16.3798 21.5134 16.7966V53.5461C21.5134 53.9629 21.8397 54.3012 22.2429 54.3012H49.5341C49.9373 54.3012 50.2636 53.9629 50.2636 53.5461V45.2765C50.2636 44.8596 49.9373 44.5213 49.5341 44.5213Z" fill="white"/>
<path d="M41.0063 26.2231C41.4095 26.2231 41.7359 25.8848 41.7359 25.468C41.7359 25.0512 41.4095 24.7129 41.0063 24.7129H26.3496C25.9464 24.7129 25.6201 25.0512 25.6201 25.468C25.6201 25.8848 25.9464 26.2231 26.3496 26.2231H41.0063Z" fill="white"/>
<path d="M41.9154 32.1855C41.9154 31.7687 41.5891 31.4304 41.1859 31.4304H26.5331C26.1299 31.4304 25.8035 31.7687 25.8035 32.1855C25.8035 32.6024 26.1299 32.9407 26.5331 32.9407H41.1859C41.5891 32.9407 41.9154 32.6024 41.9154 32.1855Z" fill="white"/>
</svg>
