<svg width="70" height="70" viewBox="0 0 70 70" fill="none" xmlns="http://www.w3.org/2000/svg">
<path fill-rule="evenodd" clip-rule="evenodd" d="M34.0877 69.6985C44.7269 70.5212 56.4781 70.1484 63.5722 62.2034C70.9968 53.8883 70.861 41.8146 68.7441 30.8855C66.5108 19.3552 62.5898 6.84416 51.8952 1.91539C41.3216 -2.95759 29.384 2.33829 19.2586 8.07933C10.169 13.2331 2.34114 20.8647 0.408701 31.1078C-1.44639 40.9409 3.24328 50.4985 9.83171 58.0478C16.0289 65.1487 24.6731 68.9704 34.0877 69.6985Z" fill="#FF5B62"/>
<path d="M29.8249 44.7901H16.3499V27.6401V26.1701V20.7801H21.7399V44.7901H23.2099L23.4549 20.7801H52.1199V22.2501V24.9451C52.1199 25.14 52.1974 25.3269 52.3352 25.4648C52.4731 25.6026 52.66 25.6801 52.8549 25.6801C53.0499 25.6801 53.2368 25.6026 53.3747 25.4648C53.5125 25.3269 53.5899 25.14 53.5899 24.9451V20.0451C53.5899 19.8501 53.5125 19.6632 53.3747 19.5253C53.2368 19.3875 53.0499 19.3101 52.8549 19.3101H15.6149C15.42 19.3101 15.2331 19.3875 15.0952 19.5253C14.9574 19.6632 14.8799 19.8501 14.8799 20.0451V45.5251C14.8799 45.72 14.9574 45.9069 15.0952 46.0448C15.2331 46.1826 15.42 46.2601 15.6149 46.2601H29.8249C30.0199 46.2601 30.2068 46.1826 30.3447 46.0448C30.4825 45.9069 30.5599 45.72 30.5599 45.5251C30.5599 45.3301 30.4825 45.1432 30.3447 45.0053C30.2068 44.8675 30.0199 44.7901 29.8249 44.7901Z" fill="white"/>
<path d="M18.31 22.985V25.435C18.31 25.6299 18.3874 25.8169 18.5253 25.9547C18.6631 26.0926 18.8501 26.17 19.045 26.17C19.2399 26.17 19.4269 26.0926 19.5647 25.9547C19.7026 25.8169 19.78 25.6299 19.78 25.435V22.985C19.78 22.7901 19.7026 22.6031 19.5647 22.4653C19.4269 22.3274 19.2399 22.25 19.045 22.25C18.8501 22.25 18.6631 22.3274 18.5253 22.4653C18.3874 22.6031 18.31 22.7901 18.31 22.985Z" fill="white"/>
<path d="M18.31 28.3471V30.7971C18.31 30.992 18.3874 31.1789 18.5253 31.3168C18.6631 31.4546 18.8501 31.5321 19.045 31.5321C19.2399 31.5321 19.4269 31.4546 19.5647 31.3168C19.7026 31.1789 19.78 30.992 19.78 30.7971V28.3471C19.78 28.1521 19.7026 27.9652 19.5647 27.8273C19.4269 27.6895 19.2399 27.6121 19.045 27.6121C18.8501 27.6121 18.6631 27.6895 18.5253 27.8273C18.3874 27.9652 18.31 28.1521 18.31 28.3471Z" fill="white"/>
<path d="M57.7349 37.758V37.6884C57.7362 37.6617 57.7362 37.6349 57.7349 37.6081C57.7349 37.6081 57.7349 37.5599 57.7349 37.5331C57.7349 37.5064 57.7349 37.4796 57.7349 37.4528C57.7349 37.4261 57.7349 37.3993 57.7349 37.3725C57.7349 37.3458 57.7349 37.3244 57.7349 37.2976C57.7362 37.2708 57.7362 37.244 57.7349 37.2173V37.1477L57.7033 37.0727L57.6612 37.0031L57.6349 36.9549C57.4191 36.6819 52.2825 29.963 45.6301 29.963C38.3251 29.963 32.9358 36.6712 32.7095 36.9549L32.6674 37.0192L32.6253 37.0834C32.6133 37.1096 32.6028 37.1364 32.5937 37.1637V37.228C32.5922 37.2565 32.5922 37.2851 32.5937 37.3136C32.5937 37.3136 32.5937 37.3565 32.5937 37.3832C32.5937 37.41 32.5937 37.4368 32.5937 37.4635C32.5937 37.4903 32.5937 37.5171 32.5937 37.5439C32.5937 37.5706 32.5937 37.5867 32.5937 37.6135C32.5922 37.642 32.5922 37.6706 32.5937 37.6991V37.7634C32.6028 37.7907 32.6133 37.8175 32.6253 37.8437L32.6674 37.9079L32.7095 37.9722C32.9358 38.2452 38.3251 44.9534 45.6301 44.9534C52.2825 44.9534 57.4191 38.2345 57.6349 37.9454L57.6612 37.8972L57.7033 37.8276L57.7349 37.758ZM45.6301 43.3473C40.1724 43.3473 35.7357 38.9626 34.3726 37.4582C35.7357 35.9538 40.1619 31.5691 45.6301 31.5691C50.5299 31.5691 54.7034 35.9699 55.9771 37.4582C54.7087 38.9465 50.5299 43.3473 45.6301 43.3473Z" fill="white"/>
<path d="M45.167 32.9075C44.2822 32.9075 43.4173 33.1744 42.6816 33.6744C41.946 34.1744 41.3726 34.8851 41.034 35.7167C40.6954 36.5482 40.6068 37.4632 40.7794 38.3459C40.952 39.2286 41.3781 40.0395 42.0037 40.6759C42.6294 41.3123 43.4265 41.7457 44.2942 41.9213C45.162 42.0969 46.0615 42.0068 46.8789 41.6624C47.6963 41.3179 48.395 40.7347 48.8866 39.9863C49.3781 39.238 49.6405 38.3581 49.6405 37.4581C49.6391 36.2516 49.1673 35.095 48.3287 34.2419C47.49 33.3888 46.353 32.9089 45.167 32.9075ZM45.167 40.4027C44.5945 40.4027 44.0348 40.23 43.5588 39.9064C43.0828 39.5829 42.7118 39.123 42.4927 38.5849C42.2736 38.0469 42.2163 37.4548 42.328 36.8837C42.4397 36.3125 42.7153 35.7878 43.1202 35.376C43.525 34.9642 44.0408 34.6838 44.6023 34.5702C45.1638 34.4565 45.7458 34.5149 46.2747 34.7377C46.8036 34.9606 47.2557 35.338 47.5738 35.8222C47.8918 36.3064 48.0616 36.8757 48.0616 37.4581C48.0602 38.2386 47.7548 38.9868 47.2122 39.5387C46.6697 40.0906 45.9342 40.4012 45.167 40.4027Z" fill="white"/>
</svg>
