<svg width="70" height="70" viewBox="0 0 70 70" fill="none" xmlns="http://www.w3.org/2000/svg">
<path fill-rule="evenodd" clip-rule="evenodd" d="M34.0877 69.6985C44.7269 70.5212 56.4781 70.1484 63.5722 62.2034C70.9968 53.8883 70.861 41.8146 68.7441 30.8855C66.5108 19.3552 62.5898 6.84416 51.8952 1.91539C41.3216 -2.95759 29.384 2.33829 19.2586 8.07933C10.169 13.2331 2.34114 20.8647 0.408701 31.1078C-1.44639 40.9409 3.24328 50.4985 9.83171 58.0478C16.0289 65.1487 24.6731 68.9704 34.0877 69.6985Z" fill="#FF5B62"/>
<path d="M57.875 38.91H54.2V23.475C54.2 23.2801 54.1226 23.0931 53.9847 22.9553C53.8469 22.8175 53.66 22.74 53.465 22.74H47.83V15.635C47.83 15.4401 47.7526 15.2531 47.6147 15.1153C47.4769 14.9775 47.29 14.9 47.095 14.9H31.905C31.7101 14.9 31.5231 14.9775 31.3853 15.1153C31.2475 15.2531 31.17 15.4401 31.17 15.635V22.74H25.535C25.3401 22.74 25.1531 22.8175 25.0153 22.9553C24.8775 23.0931 24.8 23.2801 24.8 23.475V38.91H21.125C20.9301 38.91 20.7431 38.9875 20.6053 39.1253C20.4675 39.2631 20.39 39.4501 20.39 39.645V48.955C20.39 49.15 20.4675 49.3369 20.6053 49.4747C20.7431 49.6126 20.9301 49.69 21.125 49.69H30.435C30.63 49.69 30.8169 49.6126 30.9547 49.4747C31.0926 49.3369 31.17 49.15 31.17 48.955V39.645C31.17 39.4501 31.0926 39.2631 30.9547 39.1253C30.8169 38.9875 30.63 38.91 30.435 38.91H26.27V24.21H31.17V30.825C31.17 31.02 31.2475 31.2069 31.3853 31.3447C31.5231 31.4826 31.7101 31.56 31.905 31.56H39.01V38.91H34.845C34.6501 38.91 34.4631 38.9875 34.3253 39.1253C34.1875 39.2631 34.11 39.4501 34.11 39.645V48.955C34.11 49.15 34.1875 49.3369 34.3253 49.4747C34.4631 49.6126 34.6501 49.69 34.845 49.69H44.155C44.35 49.69 44.5369 49.6126 44.6747 49.4747C44.8126 49.3369 44.89 49.15 44.89 48.955V39.645C44.89 39.4501 44.8126 39.2631 44.6747 39.1253C44.5369 38.9875 44.35 38.91 44.155 38.91H40.48V31.56H47.095C47.29 31.56 47.4769 31.4826 47.6147 31.3447C47.7526 31.2069 47.83 31.02 47.83 30.825V24.21H52.73V38.91H48.565C48.3701 38.91 48.1831 38.9875 48.0453 39.1253C47.9075 39.2631 47.83 39.4501 47.83 39.645V48.955C47.83 49.15 47.9075 49.3369 48.0453 49.4747C48.1831 49.6126 48.3701 49.69 48.565 49.69H57.875C58.07 49.69 58.2569 49.6126 58.3947 49.4747C58.5326 49.3369 58.61 49.15 58.61 48.955V39.645C58.61 39.4501 58.5326 39.2631 58.3947 39.1253C58.2569 38.9875 58.07 38.91 57.875 38.91ZM29.7 48.22H21.86V40.38H29.7V48.22ZM43.42 48.22H35.58V40.38H43.42V48.22ZM46.36 30.09H32.64V16.37H46.36V30.09ZM57.14 48.22H49.3V40.38H57.14V48.22Z" fill="white"/>
</svg>
