<svg width="101" height="101" viewBox="0 0 101 101" fill="none" xmlns="http://www.w3.org/2000/svg">
<path d="M88.127 7.64H64.729C61.821 7.64 59.455 10.006 59.455 12.914V17.434C59.455 17.437 59.454 17.44 59.454 17.444C59.454 17.448 59.455 17.45 59.455 17.454V47.9C59.455 47.903 59.454 47.906 59.454 47.91C59.454 47.914 59.455 47.916 59.455 47.92V52.4C59.455 55.309 61.821 57.676 64.729 57.676H88.127C91.039 57.676 93.409 55.309 93.409 52.4V12.914C93.409 10.006 91.039 7.64 88.127 7.64ZM62.36 18.897H90.503V46.457H62.36V18.897ZM64.729 10.546H88.127C89.438 10.546 90.503 11.608 90.503 12.914V15.991H62.36V12.914C62.36 11.608 63.423 10.546 64.729 10.546ZM88.127 54.771H64.729C63.423 54.771 62.361 53.708 62.361 52.401V49.364H90.504V52.4C90.503 53.707 89.438 54.771 88.127 54.771Z" fill="#FF5B62"/>
<path d="M83.743 64.316C82.94 64.316 82.29 64.966 82.29 65.769V84.678H51.801C50.998 84.678 50.348 85.328 50.348 86.131C50.348 86.934 50.998 87.584 51.801 87.584H83.743C84.546 87.584 85.196 86.934 85.196 86.131V65.77C85.196 64.967 84.546 64.316 83.743 64.316Z" fill="#FF5B62"/>
<path d="M16.861 52.236C17.664 52.236 18.314 51.586 18.314 50.783V20.702H50.665C51.468 20.702 52.118 20.052 52.118 19.249C52.118 18.446 51.468 17.796 50.665 17.796H16.861C16.058 17.796 15.408 18.446 15.408 19.249V50.783C15.408 51.586 16.058 52.236 16.861 52.236Z" fill="#FF5B62"/>
<path d="M41.482 73.741C40.679 73.741 40.029 74.391 40.029 75.194V89.454H32.423V75.194C32.423 74.391 31.773 73.741 30.97 73.741C30.167 73.741 29.517 74.391 29.517 75.194V89.454H20.1V75.194C20.1 74.391 19.45 73.741 18.647 73.741C17.844 73.741 17.194 74.391 17.194 75.194V89.454H9.526V75.194C9.526 74.391 8.876 73.741 8.073 73.741C7.27 73.741 6.62 74.391 6.62 75.194V90.907C6.62 91.71 7.27 92.36 8.073 92.36H41.482C42.285 92.36 42.935 91.71 42.935 90.907V75.194C42.935 74.392 42.285 73.741 41.482 73.741Z" fill="#FF5B62"/>
<path d="M48.66 69.249L26.006 56.304C25.561 56.049 25.014 56.049 24.568 56.302L1.767 69.247C1.288 69.519 1.029 70.023 1.038 70.537C1.037 70.56 1.031 70.582 1.031 70.606C1.031 71.409 1.681 72.059 2.484 72.059H47.259C47.449 72.059 47.629 72.02 47.796 71.954C48.348 72.008 48.908 71.745 49.201 71.231C49.599 70.535 49.356 69.647 48.66 69.249ZM25.283 59.237L42.635 69.153H7.818L25.283 59.237Z" fill="#FF5B62"/>
</svg>
