<svg width="39" height="42" viewBox="0 0 39 42" fill="none" xmlns="http://www.w3.org/2000/svg">
<path d="M38.359 12.8701L34.3034 0.855305C34.2038 0.559733 33.924 0.360596 33.6085 0.360596H5.21966C4.90424 0.360596 4.62445 0.559733 4.52485 0.855305L0.469223 12.8701C0.444321 12.9439 0.431625 13.021 0.431625 13.0986V41.1327C0.431625 41.5319 0.759259 41.8559 1.16404 41.8559H37.6642C38.0685 41.8559 38.3966 41.5319 38.3966 41.1327V13.0986C38.3966 13.021 38.3839 12.9439 38.359 12.8701ZM36.7467 12.6671C35.2452 13.7515 33.5665 14.266 31.4943 14.266C29.6188 14.266 27.8088 13.6898 26.2302 12.6078V1.80711H33.0807L36.7467 12.6671ZM14.0633 1.80711H24.7649V12.6092C23.1877 13.6903 21.3777 14.2665 19.5017 14.2665C17.5535 14.2665 15.6825 13.644 14.0633 12.4766V1.80711ZM5.74749 1.80711H12.5985V12.4766C10.9794 13.644 9.10878 14.2665 7.16007 14.2665C5.32367 14.2665 3.57027 13.7419 2.05221 12.7549L5.74749 1.80711ZM1.89645 40.4094V14.3518C3.49751 15.2405 5.29144 15.713 7.16007 15.713C9.36855 15.713 11.4906 15.0355 13.3309 13.7476C15.1712 15.0355 17.2933 15.713 19.5017 15.713C21.637 15.713 23.699 15.0794 25.4978 13.8754C27.2981 15.0794 29.3596 15.713 31.4938 15.713C33.5602 15.713 35.3483 15.2376 36.9318 14.2824V40.4094H1.89645Z" fill="#FF5B62"/>
<path d="M26.6438 19.1257H12.1845C11.7797 19.1257 11.4521 19.4493 11.4521 19.849V33.1227C11.4521 33.522 11.7797 33.846 12.1845 33.846H26.6438C27.0481 33.846 27.3762 33.522 27.3762 33.1227V19.849C27.3762 19.4493 27.0481 19.1257 26.6438 19.1257ZM12.9169 20.5723H18.7562V32.3995H12.9169V20.5723ZM25.9114 32.3995H20.2205V20.5723H25.9109V32.3995H25.9114Z" fill="#FF5B62"/>
</svg>
