<svg width="45" height="46" viewBox="0 0 45 46" fill="none" xmlns="http://www.w3.org/2000/svg">
<path d="M29.409 16.669L14.611 28.429C14.317 28.674 14.219 29.164 14.513 29.458C14.66 29.654 14.856 29.752 15.101 29.752C15.248 29.752 15.444 29.703 15.542 29.605L30.34 17.845C30.634 17.6 30.732 17.11 30.438 16.816C30.193 16.473 29.752 16.424 29.409 16.669Z" fill="#FF5B62"/>
<path d="M18.58 21.912C18.776 21.912 18.972 21.912 19.168 21.863C21.177 21.569 22.598 19.658 22.255 17.6C22.108 16.62 21.569 15.738 20.785 15.15C20.001 14.562 19.021 14.317 18.041 14.464C17.061 14.611 16.179 15.15 15.591 15.934C15.003 16.718 14.758 17.698 14.905 18.678C15.199 20.589 16.816 21.912 18.58 21.912ZM18.237 15.983C18.335 15.983 18.482 15.934 18.58 15.934C19.658 15.934 20.638 16.718 20.785 17.845C20.981 19.07 20.148 20.197 18.923 20.393C17.698 20.589 16.571 19.756 16.375 18.531C16.179 17.306 17.061 16.179 18.237 15.983Z" fill="#FF5B62"/>
<path d="M26.42 24.3621C24.362 24.3621 22.696 26.0281 22.696 28.0861C22.696 30.1441 24.362 31.8101 26.42 31.8101C28.478 31.8101 30.144 30.1441 30.144 28.0861C30.095 26.0281 28.429 24.3621 26.42 24.3621ZM26.42 30.2911C25.195 30.2911 24.166 29.2621 24.166 28.0371C24.166 26.8121 25.195 25.7831 26.42 25.7831C27.645 25.7831 28.674 26.8121 28.674 28.0371C28.625 29.3111 27.645 30.2911 26.42 30.2911Z" fill="#FF5B62"/>
<path d="M44.746 22.647C44.746 22.598 44.795 22.5 44.795 22.451C44.795 20.344 42.59 19.266 40.679 18.335C39.307 17.649 37.837 16.914 37.445 16.032C37.053 15.101 37.592 13.582 38.131 12.161C38.866 10.152 39.601 8.09401 38.229 6.72201C36.857 5.35001 34.897 5.84001 32.937 6.28101C31.565 6.57501 30.144 6.91801 29.213 6.52601C28.282 6.13401 27.498 4.90901 26.763 3.73301C25.685 2.06701 24.509 0.156006 22.451 0.156006C20.393 0.156006 19.217 2.06701 18.188 3.78201C17.453 5.00701 16.718 6.23201 15.787 6.62401C14.856 7.01601 13.386 6.67301 12.014 6.33001C10.054 5.84001 8.04501 5.35001 6.72201 6.67301C5.35001 8.04501 6.03601 10.103 6.67301 12.112C7.16301 13.582 7.60401 15.052 7.21201 16.032C6.82001 16.963 5.44801 17.649 4.12501 18.335C2.26301 19.315 0.156006 20.393 0.156006 22.451C0.156006 22.5 0.156006 22.598 0.205006 22.647C0.205006 22.696 0.156006 22.794 0.156006 22.843C0.156006 24.901 2.26301 26.028 4.12501 26.959C5.44801 27.645 6.82001 28.331 7.21201 29.262C7.60401 30.193 7.11401 31.712 6.67301 33.182C6.03601 35.191 5.35001 37.249 6.72201 38.621C8.09401 39.993 10.103 39.454 12.014 38.964C13.386 38.621 14.856 38.278 15.787 38.67C16.718 39.062 17.453 40.287 18.188 41.512C19.217 43.227 20.393 45.138 22.451 45.138C24.509 45.138 25.734 43.227 26.763 41.561C27.498 40.385 28.282 39.16 29.213 38.768C30.193 38.376 31.565 38.67 32.937 39.013C34.848 39.454 36.857 39.944 38.229 38.572C39.601 37.2 38.866 35.142 38.131 33.133C37.592 31.663 37.053 30.193 37.445 29.262C37.837 28.331 39.258 27.645 40.679 26.959C42.59 25.979 44.795 24.901 44.795 22.843C44.795 22.745 44.746 22.696 44.746 22.647ZM39.993 25.636C38.376 26.469 36.661 27.302 36.073 28.723C35.436 30.193 36.122 31.957 36.71 33.672C37.298 35.289 37.886 36.857 37.151 37.543C36.367 38.327 34.848 37.984 33.231 37.592C31.614 37.2 29.997 36.857 28.576 37.445C27.204 38.033 26.322 39.405 25.489 40.777C24.558 42.247 23.676 43.668 22.402 43.668C21.177 43.668 20.295 42.247 19.364 40.728C18.531 39.307 17.649 37.886 16.277 37.298C14.856 36.71 13.19 37.102 11.573 37.543C9.95601 37.935 8.43701 38.327 7.65301 37.592C6.91801 36.857 7.40801 35.289 7.94701 33.672C8.48601 31.957 9.07401 30.193 8.43701 28.772C7.84901 27.351 6.23201 26.518 4.66401 25.734C3.04701 24.901 1.52801 24.117 1.52801 22.892C1.52801 22.843 1.52801 22.745 1.47901 22.696C1.47901 22.647 1.52801 22.549 1.52801 22.5C1.52801 21.324 3.04701 20.54 4.66401 19.658C6.23201 18.874 7.84901 18.041 8.43701 16.62C9.02501 15.15 8.48601 13.386 7.94701 11.72C7.40801 10.054 6.91801 8.48601 7.65301 7.80001C8.43701 7.01601 9.95601 7.40801 11.573 7.84901C13.19 8.24101 14.856 8.68201 16.277 8.09401C17.649 7.50601 18.531 6.08501 19.364 4.66401C20.295 3.14501 21.128 1.72401 22.402 1.72401C23.676 1.72401 24.558 3.14501 25.489 4.61501C26.371 5.98701 27.253 7.35901 28.576 7.94701C29.997 8.53501 31.614 8.14301 33.231 7.80001C34.848 7.40801 36.367 7.06501 37.151 7.84901C37.886 8.53501 37.298 10.103 36.71 11.72C36.073 13.435 35.436 15.199 36.073 16.669C36.661 18.09 38.376 18.923 39.993 19.756C41.708 20.589 43.276 21.422 43.276 22.598C43.276 22.647 43.276 22.745 43.325 22.794C43.325 22.843 43.276 22.941 43.276 22.99C43.325 23.97 41.708 24.803 39.993 25.636Z" fill="#FF5B62"/>
</svg>
