<svg width="38" height="41" viewBox="0 0 38 41" fill="none" xmlns="http://www.w3.org/2000/svg">
<path d="M36.8775 13.6655L18.927 0.566498C18.8019 0.4743 18.6506 0.424561 18.4952 0.424561C18.3398 0.424561 18.1885 0.4743 18.0634 0.566498L0.598051 13.6655C0.507671 13.7333 0.434314 13.8212 0.38379 13.9222C0.333266 14.0233 0.306962 14.1347 0.306962 14.2477V39.4754C0.306322 39.5714 0.324673 39.6665 0.360958 39.7554C0.397243 39.8442 0.450745 39.925 0.518384 39.9931C0.586023 40.0612 0.666463 40.1153 0.755072 40.1521C0.843681 40.189 0.938709 40.208 1.03468 40.208H36.4505C36.6435 40.208 36.8286 40.1313 36.9651 39.9948C37.1016 39.8584 37.1782 39.6733 37.1782 39.4803V14.2525C37.1779 14.1379 37.1505 14.025 37.0982 13.923C37.0459 13.821 36.9703 13.7328 36.8775 13.6655ZM30.3862 29.5347H22.6238V22.2575H30.3862V29.5347ZM21.1684 38.7525H13.8911V30.9902H21.1684V38.7525ZM22.6238 30.9902H30.3862V38.7525H22.6238V30.9902ZM30.3862 20.802H21.8961C21.7031 20.802 21.518 20.8787 21.3815 21.0152C21.245 21.1517 21.1684 21.3368 21.1684 21.5298V29.5347H13.1634C12.9704 29.5347 12.7853 29.6114 12.6488 29.7479C12.5123 29.8843 12.4357 30.0694 12.4357 30.2624V38.7525H7.58419V17.406H30.3862V20.802ZM35.7228 38.7525H31.8416V16.6783C31.8416 16.4853 31.7649 16.3002 31.6285 16.1637C31.492 16.0272 31.3069 15.9506 31.1139 15.9506H6.85647C6.66346 15.9506 6.47836 16.0272 6.34189 16.1637C6.20542 16.3002 6.12874 16.4853 6.12874 16.6783V38.7525H1.76241V14.6164L18.5049 2.06076L35.7228 14.6212V38.7525Z" fill="#FF5B62"/>
</svg>
