<svg width="41" height="37" viewBox="0 0 41 37" fill="none" xmlns="http://www.w3.org/2000/svg">
<path d="M26.7507 27.238C26.3464 27.238 26.0183 27.5661 26.0183 27.9704V34.6652H2.11078V3.12303H26.0178V8.68938C26.0178 9.09416 26.3459 9.4218 26.7502 9.4218C27.1545 9.4218 27.4826 9.09416 27.4826 8.68938V2.39062C27.4826 1.98584 27.1545 1.6582 26.7502 1.6582H1.37836C0.973584 1.6582 0.64595 1.98584 0.64595 2.39062V35.3971C0.64595 35.8014 0.973584 36.1295 1.37836 36.1295H26.7502C27.1545 36.1295 27.4826 35.8014 27.4826 35.3971V27.9704C27.4831 27.5657 27.155 27.238 26.7507 27.238Z" fill="#FF5B62"/>
<path d="M40.1055 3.60991C40.0664 3.41949 39.9531 3.2525 39.791 3.14556L36.1138 0.720783C35.9517 0.614339 35.7549 0.576741 35.5626 0.614827C35.3721 0.653889 35.2056 0.767169 35.0987 0.929765L32.4068 5.02006C32.379 5.06254 32.3561 5.10697 32.338 5.15238L18.0979 26.7601C18.0681 26.8055 18.0447 26.8543 18.0256 26.9046C17.9431 27.0018 17.8826 27.1199 17.8601 27.2547L16.9358 32.7786C16.887 33.0696 17.0178 33.3606 17.2669 33.5188C17.3865 33.594 17.5222 33.6316 17.658 33.6316C17.8049 33.6316 17.9519 33.5872 18.0774 33.4993L22.6638 30.2947C22.7077 30.2639 22.7468 30.2288 22.7819 30.1907C22.863 30.1375 22.9372 30.0721 22.9938 29.9861L37.2417 8.36768C37.2701 8.32422 37.293 8.27833 37.3116 8.23096L39.9986 4.16118C40.106 3.99858 40.1446 3.80083 40.1055 3.60991ZM19.1638 28.3397L21.0891 29.6082L18.6682 31.2996L19.1638 28.3397ZM22.174 28.5686L19.7239 26.9544L33.1656 6.55862L35.6158 8.17335L22.174 28.5686ZM36.4078 6.94094L33.9586 5.32669L35.9195 2.34723L38.3726 3.96489L36.4078 6.94094Z" fill="#FF5B62"/>
<path d="M18.8225 10.9121C19.2273 10.9121 19.5549 10.5845 19.5549 10.1797C19.5549 9.7749 19.2273 9.44727 18.8225 9.44727H5.19668C4.7919 9.44727 4.46426 9.7749 4.46426 10.1797C4.46426 10.5845 4.7919 10.9121 5.19668 10.9121H18.8225Z" fill="#FF5B62"/>
<path d="M5.36713 16.9453H18.9896C19.3943 16.9453 19.722 16.6177 19.722 16.2129C19.722 15.8081 19.3943 15.4805 18.9896 15.4805H5.36713C4.96235 15.4805 4.63472 15.8081 4.63472 16.2129C4.63472 16.6177 4.96235 16.9453 5.36713 16.9453Z" fill="#FF5B62"/>
</svg>
