<svg width="46" height="26" viewBox="0 0 46 26" fill="none" xmlns="http://www.w3.org/2000/svg">
<path d="M22.9772 13.6272C17.0364 13.6272 12.2029 18.4602 12.2029 24.401C12.2029 24.8053 12.5306 25.1334 12.9354 25.1334H33.0187C33.4229 25.1334 33.7511 24.8053 33.7511 24.401C33.7511 18.4602 28.9176 13.6272 22.9772 13.6272ZM13.6966 23.6686C14.0716 18.8767 18.0911 15.092 22.9772 15.092C27.8634 15.092 31.8829 18.8767 32.2574 23.6686H13.6966Z" fill="#FF5B62"/>
<path d="M22.8015 12.66C26.2893 12.66 29.1266 9.82266 29.1266 6.3349C29.1266 2.84714 26.2888 0.00976562 22.8015 0.00976562C19.3138 0.00976562 16.4764 2.84714 16.4764 6.3349C16.4764 9.82266 19.3138 12.66 22.8015 12.66ZM22.8015 1.4746C25.4812 1.4746 27.6618 3.65475 27.6618 6.3349C27.6618 9.01456 25.4812 11.1952 22.8015 11.1952C20.1214 11.1952 17.9412 9.01505 17.9412 6.3349C17.9412 3.65475 20.1214 1.4746 22.8015 1.4746Z" fill="#FF5B62"/>
<path d="M8.65812 17.6687C9.85977 17.6687 11.0399 17.989 12.0712 18.5954C12.4198 18.8015 12.869 18.6838 13.0736 18.3357C13.2787 17.987 13.1625 17.5378 12.8134 17.3328C11.5575 16.594 10.1205 16.2039 8.65812 16.2039C4.13815 16.2039 0.460938 19.8811 0.460938 24.401C0.460938 24.8053 0.788571 25.1335 1.19335 25.1335H10.4765C10.8812 25.1335 11.2089 24.8053 11.2089 24.401C11.2089 23.9968 10.8812 23.6686 10.4765 23.6686H1.96532C2.33152 20.2995 5.19331 17.6687 8.65812 17.6687Z" fill="#FF5B62"/>
<path d="M8.52821 15.0346C11.224 15.0346 13.4178 12.8412 13.4178 10.145C13.4178 7.44871 11.2245 5.25537 8.52821 5.25537C5.83195 5.25537 3.63861 7.44871 3.63861 10.145C3.63861 12.8407 5.83195 15.0346 8.52821 15.0346ZM8.52821 6.7202C10.4164 6.7202 11.953 8.25632 11.953 10.145C11.953 12.0331 10.4169 13.5697 8.52821 13.5697C6.63956 13.5697 5.10344 12.0336 5.10344 10.145C5.10344 8.25632 6.63956 6.7202 8.52821 6.7202Z" fill="#FF5B62"/>
<path d="M37.3557 16.2039C35.8938 16.2039 34.4568 16.5945 33.2004 17.3328C32.8513 17.5378 32.7351 17.9866 32.9402 18.3352C33.1453 18.6848 33.5955 18.8005 33.9426 18.5954C34.9743 17.989 36.1545 17.6687 37.3557 17.6687C40.8205 17.6687 43.6823 20.2995 44.0485 23.6686H35.5388C35.1345 23.6686 34.8064 23.9968 34.8064 24.401C34.8064 24.8053 35.1345 25.1335 35.5388 25.1335H44.8204C45.2247 25.1335 45.5529 24.8053 45.5529 24.401C45.5529 19.8811 41.8756 16.2039 37.3557 16.2039Z" fill="#FF5B62"/>
<path d="M37.486 15.0346C40.1817 15.0346 42.3756 12.8412 42.3756 10.145C42.3756 7.44871 40.1822 5.25537 37.486 5.25537C34.7897 5.25537 32.5959 7.44871 32.5959 10.145C32.5964 12.8407 34.7897 15.0346 37.486 15.0346ZM37.486 6.7202C39.3741 6.7202 40.9107 8.25632 40.9107 10.145C40.9107 12.0331 39.3746 13.5697 37.486 13.5697C35.5973 13.5697 34.0607 12.0336 34.0607 10.145C34.0612 8.25632 35.5973 6.7202 37.486 6.7202Z" fill="#FF5B62"/>
</svg>
