<svg width="49" height="49" viewBox="0 0 49 49" fill="none" xmlns="http://www.w3.org/2000/svg">
<path d="M39.6711 45.4947H7.34994V17.6401H38.4461V20.3351C38.4461 20.53 38.5235 20.7169 38.6614 20.8548C38.7992 20.9926 38.9862 21.0701 39.1811 21.0701C39.376 21.0701 39.563 20.9926 39.7008 20.8548C39.8387 20.7169 39.9161 20.53 39.9161 20.3351V10.0451C39.9161 9.85012 39.8387 9.66317 39.7008 9.52534C39.563 9.3875 39.376 9.31006 39.1811 9.31006H6.61494C6.42001 9.31006 6.23306 9.3875 6.09522 9.52534C5.95738 9.66317 5.87994 9.85012 5.87994 10.0451V46.2297C5.87994 46.4246 5.95738 46.6116 6.09522 46.7494C6.23306 46.8872 6.42001 46.9647 6.61494 46.9647H39.6711C39.866 46.9647 40.053 46.8872 40.1908 46.7494C40.3287 46.6116 40.4061 46.4246 40.4061 46.2297C40.4061 46.0347 40.3287 45.8478 40.1908 45.71C40.053 45.5721 39.866 45.4947 39.6711 45.4947ZM38.4461 10.7801V16.1701H7.34994V10.7801H38.4461Z" fill="#FF5B62"/>
<path d="M10.045 14.21H12.495C12.6899 14.21 12.8769 14.1326 13.0147 13.9947C13.1526 13.8569 13.23 13.6699 13.23 13.475C13.23 13.2801 13.1526 13.0931 13.0147 12.9553C12.8769 12.8174 12.6899 12.74 12.495 12.74H10.045C9.85006 12.74 9.66311 12.8174 9.52527 12.9553C9.38744 13.0931 9.31 13.2801 9.31 13.475C9.31 13.6699 9.38744 13.8569 9.52527 13.9947C9.66311 14.1326 9.85006 14.21 10.045 14.21Z" fill="#FF5B62"/>
<path d="M15.435 14.21H17.885C18.0799 14.21 18.2668 14.1326 18.4047 13.9947C18.5425 13.8569 18.62 13.6699 18.62 13.475C18.62 13.2801 18.5425 13.0931 18.4047 12.9553C18.2668 12.8174 18.0799 12.74 17.885 12.74H15.435C15.24 12.74 15.0531 12.8174 14.9152 12.9553C14.7774 13.0931 14.7 13.2801 14.7 13.475C14.7 13.6699 14.7774 13.8569 14.9152 13.9947C15.0531 14.1326 15.24 14.21 15.435 14.21Z" fill="#FF5B62"/>
<path d="M26.9777 24.8768C27.4832 24.8768 27.8924 24.5396 27.8924 24.123C27.8924 23.7064 27.4832 23.3691 26.9777 23.3691H9.96089C9.45537 23.3691 9.0462 23.7064 9.0462 24.123C9.0462 24.5396 9.45537 24.8768 9.96089 24.8768H26.9777Z" fill="#FF5B62"/>
<path d="M9.9611 32.4154H26.9775C27.4831 32.4154 27.8924 32.0782 27.8924 31.6616C27.8924 31.2449 27.4831 30.9077 26.9775 30.9077H9.9611C9.45547 30.9077 9.0462 31.2449 9.0462 31.6616C9.0462 32.0782 9.45547 32.4154 9.9611 32.4154Z" fill="#FF5B62"/>
<path d="M48.9878 19.8795C48.9547 19.7187 48.859 19.5777 48.722 19.4874L45.6147 17.4398C45.4777 17.35 45.3115 17.3182 45.1489 17.3504C44.988 17.3834 44.8473 17.479 44.7569 17.6163L42.4822 21.0702C42.4587 21.1061 42.4393 21.1436 42.424 21.182L30.3909 39.428C30.3657 39.4663 30.3459 39.5076 30.3298 39.55C30.2601 39.6321 30.2089 39.7319 30.1899 39.8457L29.4089 44.5101C29.3676 44.7559 29.4782 45.0016 29.6886 45.1352C29.7897 45.1987 29.9044 45.2304 30.0191 45.2304C30.1433 45.2304 30.2675 45.1929 30.3735 45.1187L34.2491 42.4127C34.2863 42.3867 34.3193 42.357 34.349 42.3249C34.4175 42.2799 34.4802 42.2247 34.5281 42.1521L46.5678 23.897C46.5918 23.8603 46.6112 23.8216 46.6268 23.7816L48.8974 20.345C48.9882 20.2077 49.0208 20.0407 48.9878 19.8795ZM31.2916 40.7618L32.9185 41.833L30.8728 43.2612L31.2916 40.7618ZM33.8353 40.9552L31.7648 39.5921L43.1234 22.3694L45.1939 23.7329L33.8353 40.9552ZM45.8631 22.6923L43.7935 21.3292L45.4505 18.8132L47.5234 20.1792L45.8631 22.6923Z" fill="#FF5B62"/>
</svg>
