<svg width="49" height="49" viewBox="0 0 49 49" fill="none" xmlns="http://www.w3.org/2000/svg">
<path d="M43.365 17.6399V11.7599C43.3637 11.0456 43.0794 10.3608 42.5742 9.85572C42.0691 9.35059 41.3844 9.06624 40.67 9.06494H8.82C8.10564 9.06624 7.42091 9.35059 6.91578 9.85572C6.41065 10.3608 6.1263 11.0456 6.125 11.7599V17.6399C6.12536 18.0076 6.20122 18.3713 6.34788 18.7084C6.49454 19.0456 6.70887 19.349 6.9776 19.5999C6.70887 19.8509 6.49454 20.1543 6.34788 20.4915C6.20122 20.8286 6.12536 21.1923 6.125 21.5599V27.4399C6.12536 27.8076 6.20122 28.1713 6.34788 28.5084C6.49454 28.8456 6.70887 29.149 6.9776 29.3999C6.70887 29.6509 6.49454 29.9543 6.34788 30.2915C6.20122 30.6286 6.12536 30.9923 6.125 31.3599V37.2399C6.1263 37.9543 6.41065 38.639 6.91578 39.1442C7.42091 39.6493 8.10564 39.9336 8.82 39.9349H40.67C41.3844 39.9336 42.0691 39.6493 42.5742 39.1442C43.0794 38.639 43.3637 37.9543 43.365 37.2399V31.3599C43.3646 30.9923 43.2888 30.6286 43.1421 30.2915C42.9955 29.9543 42.7811 29.6509 42.5124 29.3999C42.7811 29.149 42.9955 28.8456 43.1421 28.5084C43.2888 28.1713 43.3646 27.8076 43.365 27.4399V21.5599C43.3646 21.1923 43.2888 20.8286 43.1421 20.4915C42.9955 20.1543 42.7811 19.8509 42.5124 19.5999C42.7811 19.349 42.9955 19.0456 43.1421 18.7084C43.2888 18.3713 43.3646 18.0076 43.365 17.6399ZM41.895 31.3599V37.2399C41.895 37.5648 41.7659 37.8764 41.5362 38.1061C41.3065 38.3359 40.9949 38.4649 40.67 38.4649H8.82C8.49511 38.4649 8.18353 38.3359 7.95379 38.1061C7.72406 37.8764 7.595 37.5648 7.595 37.2399V31.3599C7.595 31.035 7.72406 30.7235 7.95379 30.4937C8.18353 30.264 8.49511 30.1349 8.82 30.1349H40.67C40.9949 30.1349 41.3065 30.264 41.5362 30.4937C41.7659 30.7235 41.895 31.035 41.895 31.3599ZM41.895 21.5599V27.4399C41.895 27.7648 41.7659 28.0764 41.5362 28.3061C41.3065 28.5359 40.9949 28.6649 40.67 28.6649H8.82C8.49511 28.6649 8.18353 28.5359 7.95379 28.3061C7.72406 28.0764 7.595 27.7648 7.595 27.4399V21.5599C7.595 21.2351 7.72406 20.9235 7.95379 20.6937C8.18353 20.464 8.49511 20.3349 8.82 20.3349H40.67C40.9949 20.3349 41.3065 20.464 41.5362 20.6937C41.7659 20.9235 41.895 21.2351 41.895 21.5599ZM8.82 18.8649C8.49511 18.8649 8.18353 18.7359 7.95379 18.5061C7.72406 18.2764 7.595 17.9648 7.595 17.6399V11.7599C7.595 11.4351 7.72406 11.1235 7.95379 10.8937C8.18353 10.664 8.49511 10.5349 8.82 10.5349H40.67C40.9949 10.5349 41.3065 10.664 41.5362 10.8937C41.7659 11.1235 41.895 11.4351 41.895 11.7599V17.6399C41.895 17.9648 41.7659 18.2764 41.5362 18.5061C41.3065 18.7359 40.9949 18.8649 40.67 18.8649H8.82Z" fill="#FF5B62"/>
<path d="M12.25 16.17C13.0619 16.17 13.72 15.5118 13.72 14.7C13.72 13.8881 13.0619 13.23 12.25 13.23C11.4382 13.23 10.78 13.8881 10.78 14.7C10.78 15.5118 11.4382 16.17 12.25 16.17Z" fill="#FF5B62"/>
<path d="M12.25 25.97C13.0619 25.97 13.72 25.3119 13.72 24.5C13.72 23.6882 13.0619 23.03 12.25 23.03C11.4382 23.03 10.78 23.6882 10.78 24.5C10.78 25.3119 11.4382 25.97 12.25 25.97Z" fill="#FF5B62"/>
<path d="M12.25 35.7701C13.0619 35.7701 13.72 35.1119 13.72 34.3001C13.72 33.4882 13.0619 32.8301 12.25 32.8301C11.4382 32.8301 10.78 33.4882 10.78 34.3001C10.78 35.1119 11.4382 35.7701 12.25 35.7701Z" fill="#FF5B62"/>
<path d="M38.71 13.9651H28.91C28.7151 13.9651 28.5281 14.0425 28.3903 14.1804C28.2524 14.3182 28.175 14.5052 28.175 14.7001C28.175 14.895 28.2524 15.082 28.3903 15.2198C28.5281 15.3577 28.7151 15.4351 28.91 15.4351H38.71C38.9049 15.4351 39.0919 15.3577 39.2297 15.2198C39.3676 15.082 39.445 14.895 39.445 14.7001C39.445 14.5052 39.3676 14.3182 39.2297 14.1804C39.0919 14.0425 38.9049 13.9651 38.71 13.9651Z" fill="#FF5B62"/>
<path d="M28.91 25.2349H38.71C38.9049 25.2349 39.0919 25.1575 39.2297 25.0196C39.3676 24.8818 39.445 24.6948 39.445 24.4999C39.445 24.305 39.3676 24.118 39.2297 23.9802C39.0919 23.8423 38.9049 23.7649 38.71 23.7649H28.91C28.7151 23.7649 28.5281 23.8423 28.3903 23.9802C28.2524 24.118 28.175 24.305 28.175 24.4999C28.175 24.6948 28.2524 24.8818 28.3903 25.0196C28.5281 25.1575 28.7151 25.2349 28.91 25.2349Z" fill="#FF5B62"/>
<path d="M28.91 35.0349H38.71C38.9049 35.0349 39.0919 34.9575 39.2297 34.8197C39.3676 34.6818 39.445 34.4949 39.445 34.2999C39.445 34.105 39.3676 33.9181 39.2297 33.7802C39.0919 33.6424 38.9049 33.5649 38.71 33.5649H28.91C28.7151 33.5649 28.5281 33.6424 28.3903 33.7802C28.2524 33.9181 28.175 34.105 28.175 34.2999C28.175 34.4949 28.2524 34.6818 28.3903 34.8197C28.5281 34.9575 28.7151 35.0349 28.91 35.0349Z" fill="#FF5B62"/>
</svg>
