<svg width="1440" height="1934" viewBox="0 0 1440 1934" fill="none" xmlns="http://www.w3.org/2000/svg">
<path fill-rule="evenodd" clip-rule="evenodd" d="M595.954 150.253C905.604 141.969 1170.5 338.259 1261.75 594.559C1348.87 839.253 1228.15 1099.56 986.527 1247.23C754.95 1388.77 443.026 1381.48 217.494 1232.8C6.26968 1093.56 -31.1051 847.077 45.8025 627.09C128.909 389.37 309.199 157.925 595.954 150.253Z" fill="#3878FF" fill-opacity="0.15"/>
<path fill-rule="evenodd" clip-rule="evenodd" d="M335.972 378.853C469.698 253.985 634.297 138.136 835.468 201.155C1046.01 267.109 1203.38 476.46 1318.74 686.711C1440.44 908.527 1552.14 1164.79 1471.81 1360.95C1392.39 1554.89 1160.33 1587.9 947.035 1594.37C755.555 1600.19 548.546 1550.2 387.211 1393.9C232.333 1243.85 170.024 1030.45 160 831.884C150.572 645.109 217.64 489.348 335.972 378.853Z" fill="#3878FF" fill-opacity="0.15"/>
<path fill-rule="evenodd" clip-rule="evenodd" d="M759.891 106.664C947.75 88.4823 1155.24 96.7207 1280.5 272.305C1411.6 456.069 1409.2 722.897 1371.82 964.431C1332.39 1219.25 1263.16 1495.74 1074.32 1604.67C887.622 1712.36 676.838 1595.32 498.052 1468.45C337.555 1354.55 199.338 1185.89 165.216 959.517C132.461 742.205 215.267 530.983 331.6 364.144C441.024 207.213 593.657 122.753 759.891 106.664Z" fill="#3878FF" fill-opacity="0.15"/>
<path fill-rule="evenodd" clip-rule="evenodd" d="M755.787 299.829C944.861 283.928 1153.7 291.133 1279.77 444.698C1411.72 605.417 1409.3 838.784 1371.68 1050.03C1331.99 1272.89 1262.31 1514.71 1072.25 1609.98C884.344 1704.17 672.196 1601.81 492.253 1490.84C330.717 1391.22 191.605 1243.72 157.263 1045.73C124.295 855.671 207.638 670.937 324.723 525.02C434.856 387.769 588.476 313.901 755.787 299.829Z" fill="#3878FF" fill-opacity="0.15"/>
<path fill-rule="evenodd" clip-rule="evenodd" d="M187.676 1421.78C71.2124 1319.63 -37.7411 1188.84 15.0518 1001.59C70.3042 805.618 257.066 637.717 445.581 507.038C644.466 369.171 874.883 235.584 1054.95 280.73C1232.98 325.365 1268.14 527.21 1278.78 715.935C1288.33 885.354 1247.51 1076.05 1109.05 1240.37C976.129 1398.12 783.571 1482.07 603.328 1517.56C433.789 1550.94 290.734 1512.17 187.676 1421.78Z" fill="#3878FF" fill-opacity="0.15"/>
</svg>
