<svg width="101" height="101" viewBox="0 0 101 101" fill="none" xmlns="http://www.w3.org/2000/svg">
<path d="M98.11 52.09L80.71 42.42C80.1052 42.2031 79.4474 42.1821 78.83 42.36C68.93 47.36 53.07 55.21 49.75 56.56C46.35 55.17 30.58 47.35 20.75 42.39C20.529 42.2701 20.2815 42.2073 20.03 42.2073C19.7785 42.2073 19.531 42.2701 19.31 42.39L2.86 52.11C2.62851 52.2472 2.43819 52.4442 2.309 52.6802C2.1798 52.9163 2.11649 53.1827 2.12569 53.4517C2.1349 53.7206 2.21628 53.9821 2.36131 54.2088C2.50633 54.4355 2.70967 54.6189 2.95 54.74C9.7 58.14 14.95 60.74 19 62.74V77.57C18.9993 77.8398 19.0713 78.1049 19.2086 78.3372C19.3459 78.5695 19.5433 78.7605 19.78 78.89L48 94.39C48.0496 94.5972 48.144 94.7911 48.2765 94.958C48.409 95.1249 48.5764 95.2608 48.767 95.3561C48.9576 95.4514 49.1667 95.5038 49.3797 95.5096C49.5927 95.5155 49.8044 95.4747 50 95.39C50.189 95.4514 50.3884 95.4741 50.5864 95.4568C50.7844 95.4394 50.9768 95.3824 51.1523 95.2891C51.3277 95.1957 51.4826 95.068 51.6076 94.9136C51.7326 94.7591 51.8253 94.581 51.88 94.39L80.22 78.89C80.4552 78.7613 80.6517 78.5719 80.7888 78.3415C80.926 78.1111 80.9989 77.8481 81 77.58V63.5C81.0064 63.4201 81.0064 63.3399 81 63.26C85.21 61.19 90.76 58.44 98.08 54.75C98.3231 54.6269 98.5281 54.4399 98.6729 54.2092C98.8178 53.9784 98.897 53.7125 98.9022 53.44C98.9073 53.1676 98.8382 52.8989 98.7021 52.6628C98.5661 52.4267 98.3683 52.2322 98.13 52.1L98.11 52.09ZM20.11 45.44C35.82 53.35 43.17 56.88 46.68 58.44L33.4 66.27C30.4 65.09 16.67 58.27 6.75 53.27L20.11 45.44ZM22 64.22C32.62 69.39 33.29 69.4 33.58 69.4C33.8475 69.399 34.1099 69.3265 34.34 69.19L47.99 61.19V90.94L22 76.68V64.22ZM78 76.69L51 91.5V60.5L66.69 69.21C66.9133 69.3341 67.1645 69.3994 67.42 69.4C67.71 69.4 68.33 69.4 78 64.71V76.69ZM67.58 66.28L53.2 58.28C56.86 56.62 64.31 53.03 79.69 45.28L94.17 53.28C84.24 58.32 70.49 65.12 67.58 66.28Z" fill="#FF5B62"/>
<path d="M48.94 45.06C49.2212 45.3409 49.6025 45.4987 50 45.4987C50.3975 45.4987 50.7787 45.3409 51.06 45.06L58.06 38.06C58.325 37.7757 58.4692 37.3996 58.4623 37.011C58.4555 36.6224 58.2981 36.2516 58.0232 35.9768C57.7484 35.7019 57.3776 35.5445 56.989 35.5377C56.6004 35.5308 56.2243 35.675 55.94 35.94L52 39.88V9.5C52 9.10218 51.842 8.72064 51.5607 8.43934C51.2794 8.15804 50.8978 8 50.5 8C50.1022 8 49.7206 8.15804 49.4393 8.43934C49.158 8.72064 49 9.10218 49 9.5V40.88L44.06 35.94C43.7756 35.675 43.3996 35.5308 43.011 35.5377C42.6224 35.5445 42.2516 35.7019 41.9768 35.9768C41.7019 36.2516 41.5445 36.6224 41.5376 37.011C41.5308 37.3996 41.675 37.7757 41.94 38.06L48.94 45.06Z" fill="#FF5B62"/>
<path d="M26.94 37.06C27.2212 37.3409 27.6025 37.4987 28 37.4987C28.3975 37.4987 28.7787 37.3409 29.06 37.06L34.64 31.48C34.9049 31.1957 35.0492 30.8196 35.0423 30.431C35.0355 30.0424 34.8781 29.6716 34.6032 29.3968C34.3284 29.1219 33.9576 28.9645 33.569 28.9576C33.1804 28.9508 32.8043 29.095 32.52 29.36L30 31.88V8.5C30 8.10218 29.8419 7.72064 29.5606 7.43934C29.2793 7.15804 28.8978 7 28.5 7C28.1022 7 27.7206 7.15804 27.4393 7.43934C27.158 7.72064 27 8.10218 27 8.5V32.88L23.48 29.36C23.1956 29.095 22.8195 28.9508 22.4309 28.9576C22.0423 28.9645 21.6716 29.1219 21.3967 29.3968C21.1219 29.6716 20.9645 30.0424 20.9576 30.431C20.9508 30.8196 21.095 31.1957 21.36 31.48L26.94 37.06Z" fill="#FF5B62"/>
<path d="M70.94 36.06C71.2212 36.3409 71.6025 36.4987 72 36.4987C72.3975 36.4987 72.7787 36.3409 73.06 36.06L78.64 30.48C78.9049 30.1957 79.0492 29.8196 79.0423 29.431C79.0355 29.0424 78.878 28.6716 78.6032 28.3968C78.3284 28.1219 77.9576 27.9645 77.569 27.9576C77.1804 27.9508 76.8043 28.095 76.52 28.36L74 30.88V7.5C74 7.10218 73.8419 6.72064 73.5606 6.43934C73.2793 6.15804 72.8978 6 72.5 6C72.1022 6 71.7206 6.15804 71.4393 6.43934C71.158 6.72064 71 7.10218 71 7.5V31.88L67.48 28.36C67.1956 28.095 66.8195 27.9508 66.4309 27.9576C66.0423 27.9645 65.6716 28.1219 65.3967 28.3968C65.1219 28.6716 64.9645 29.0424 64.9576 29.431C64.9508 29.8196 65.095 30.1957 65.36 30.48L70.94 36.06Z" fill="#FF5B62"/>
</svg>
