<svg width="49" height="33" viewBox="0 0 49 33" fill="none" xmlns="http://www.w3.org/2000/svg">
<path d="M34.1991 16.3323L48.9999 31.1331V1.53223L34.1991 16.3323Z" fill="#FF5B62"/>
<path d="M25.9218 21.6876L47.5992 0.0102412C47.5818 0.00945338 47.5669 0 47.5495 0H1.51239L23.1984 21.686C23.9208 22.4108 25.1994 22.41 25.9218 21.6876Z" fill="#FF5B62"/>
<path d="M27.3839 23.1472C26.6315 23.898 25.6303 24.3131 24.5612 24.3131C23.4914 24.3131 22.4886 23.8995 21.737 23.1472L16.2045 17.6146L1.2626 32.5565C1.3272 32.5651 1.38471 32.5943 1.45167 32.5943H47.54L32.7392 17.7934L27.3839 23.1472Z" fill="#FF5B62"/>
<path d="M0.00630225 1.41797C0.00630225 1.42979 0 1.43924 0 1.45027V30.8952L14.7418 16.1534L0.00630225 1.41797Z" fill="#FF5B62"/>
</svg>
