<svg width="100" height="100" viewBox="0 0 100 100" fill="none" xmlns="http://www.w3.org/2000/svg">
<path d="M26 21H20C19.6022 21 19.2206 21.158 18.9393 21.4393C18.658 21.7206 18.5 22.1022 18.5 22.5C18.5 22.8978 18.658 23.2794 18.9393 23.5607C19.2206 23.842 19.6022 24 20 24H26C26.3978 24 26.7794 23.842 27.0607 23.5607C27.342 23.2794 27.5 22.8978 27.5 22.5C27.5 22.1022 27.342 21.7206 27.0607 21.4393C26.7794 21.158 26.3978 21 26 21Z" fill="#FF5B62"/>
<path d="M40 21H34C33.6022 21 33.2206 21.158 32.9393 21.4393C32.658 21.7206 32.5 22.1022 32.5 22.5C32.5 22.8978 32.658 23.2794 32.9393 23.5607C33.2206 23.842 33.6022 24 34 24H40C40.3978 24 40.7794 23.842 41.0607 23.5607C41.342 23.2794 41.5 22.8978 41.5 22.5C41.5 22.1022 41.342 21.7206 41.0607 21.4393C40.7794 21.158 40.3978 21 40 21Z" fill="#FF5B62"/>
<path d="M86.44 27H84V19.06C83.9974 17.7188 83.4634 16.4333 82.515 15.485C81.5667 14.5366 80.2812 14.0026 78.94 14H17.06C15.7188 14.0026 14.4333 14.5366 13.485 15.485C12.5366 16.4333 12.0026 17.7188 12 19.06V58.94C12.0026 60.2812 12.5366 61.5667 13.485 62.515C14.4333 63.4634 15.7188 63.9974 17.06 64H21V75.44C21.0026 76.6486 21.4839 77.8069 22.3385 78.6615C23.1931 79.5161 24.3514 79.9974 25.56 80H39.44C40.6486 79.9974 41.8069 79.5161 42.6615 78.6615C43.5161 77.8069 43.9974 76.6486 44 75.44V64H51V75.44C51.0026 76.6486 51.4839 77.8069 52.3385 78.6615C53.1931 79.5161 54.3514 79.9974 55.56 80H86.44C87.6486 79.9974 88.8069 79.5161 89.6615 78.6615C90.5161 77.8069 90.9974 76.6486 91 75.44V31.56C90.9974 30.3514 90.5161 29.1931 89.6615 28.3385C88.8069 27.4839 87.6486 27.0026 86.44 27ZM39.44 77H25.56C25.1471 76.9974 24.7518 76.8322 24.4598 76.5402C24.1678 76.2482 24.0026 75.8529 24 75.44V45.56C24.0026 45.1471 24.1678 44.7518 24.4598 44.4598C24.7518 44.1678 25.1471 44.0026 25.56 44H39.44C39.8529 44.0026 40.2482 44.1678 40.5402 44.4598C40.8322 44.7518 40.9974 45.1471 41 45.56V62.49V75.44C40.9974 75.8529 40.8322 76.2482 40.5402 76.5402C40.2482 76.8322 39.8529 76.9974 39.44 77ZM44 61V45.56C43.9974 44.3514 43.5161 43.1931 42.6615 42.3385C41.8069 41.4839 40.6486 41.0026 39.44 41H25.56C24.3514 41.0026 23.1931 41.4839 22.3385 42.3385C21.4839 43.1931 21.0026 44.3514 21 45.56V61H17.06C16.5137 61 15.9897 60.783 15.6034 60.3966C15.217 60.0103 15 59.4863 15 58.94V19.06C15 18.5137 15.217 17.9897 15.6034 17.6034C15.9897 17.217 16.5137 17 17.06 17H78.94C79.4864 17 80.0103 17.217 80.3966 17.6034C80.783 17.9897 81 18.5137 81 19.06V27H55.56C54.3514 27.0026 53.1931 27.4839 52.3385 28.3385C51.4839 29.1931 51.0026 30.3514 51 31.56V61H44ZM88 75.44C87.9974 75.8529 87.8322 76.2482 87.5402 76.5402C87.2482 76.8322 86.8529 76.9974 86.44 77H55.56C55.1471 76.9974 54.7518 76.8322 54.4598 76.5402C54.1678 76.2482 54.0026 75.8529 54 75.44V31.56C54.0026 31.1471 54.1678 30.7518 54.4598 30.4598C54.7518 30.1678 55.1471 30.0026 55.56 30H86.44C86.8529 30.0026 87.2482 30.1678 87.5402 30.4598C87.8322 30.7518 87.9974 31.1471 88 31.56V75.44Z" fill="#FF5B62"/>
<path d="M71.0061 73.5017C72.3869 73.4969 73.5022 72.3737 73.4974 70.993C73.4926 69.6123 72.3694 68.4969 70.9887 68.5017C69.608 68.5066 68.4926 69.6298 68.4974 71.0105C68.5023 72.3912 69.6254 73.5065 71.0061 73.5017Z" fill="#FF5B62"/>
</svg>
