<svg width="84" height="88" viewBox="0 0 84 88" fill="none" xmlns="http://www.w3.org/2000/svg">
<path d="M83.267 21.322C83.008 19.8 82.176 18.372 80.924 17.302L79.828 16.366C78.914 15.586 77.848 15.056 76.738 14.819L79.711 11.34C80.706 10.175 81.103 8.63901 80.825 7.01601C80.565 5.49401 79.733 4.06701 78.481 2.99701L77.385 2.06101C74.718 -0.214993 70.938 -0.174993 68.952 2.14901L65.98 5.62801C65.573 4.56901 64.882 3.59801 63.969 2.81801L62.873 1.88201C61.62 0.813007 60.081 0.214007 58.537 0.195007C58.512 0.195007 58.486 0.195007 58.462 0.195007C56.846 0.195007 55.419 0.825007 54.439 1.97301L45.429 12.52C45.033 11.484 44.359 10.504 43.423 9.70501L42.327 8.76901C39.665 6.49501 35.882 6.53401 33.894 8.85701L12.777 33.572C11.79 34.727 10.942 36.004 10.256 37.368C10.192 37.496 10.146 37.633 10.12 37.774L8.28399 47.908C7.30299 53.328 4.97099 58.314 1.53999 62.33L1.01199 62.948C0.752992 63.251 0.625991 63.643 0.656991 64.04C0.687991 64.436 0.875992 64.805 1.17799 65.063L27.375 87.447C27.658 87.688 28.004 87.806 28.349 87.806C28.772 87.806 29.193 87.627 29.49 87.281C33.25 82.881 38.318 79.635 44.145 77.896L53.182 75.199C53.318 75.158 53.447 75.099 53.566 75.022C55.134 74.011 56.536 72.79 57.733 71.389L71.55 55.217C73.532 52.892 72.981 49.148 70.319 46.872C70.319 46.872 70.319 46.872 70.318 46.872L69.223 45.936C68.288 45.137 67.215 44.624 66.129 44.394L82.15 25.648C83.146 24.482 83.543 22.945 83.267 21.322ZM79.869 23.698L62.459 44.074C62.457 44.076 62.455 44.077 62.453 44.08L51.349 57.077C50.811 57.707 50.885 58.654 51.515 59.192C51.798 59.433 52.144 59.551 52.489 59.551C52.913 59.551 53.334 59.372 53.631 59.026L63.07 47.977C63.071 47.975 63.073 47.974 63.074 47.973C63.97 46.927 65.895 47.036 67.276 48.218L68.371 49.154C69.753 50.335 70.164 52.221 69.269 53.27L55.453 69.44C54.491 70.566 53.369 71.556 52.117 72.386L43.289 75.021C37.408 76.776 32.225 79.941 28.211 84.214L4.26199 63.752C7.79699 59.428 10.203 54.15 11.237 48.443L13.034 38.526C13.594 37.448 14.274 36.437 15.059 35.52L36.175 10.805C37.072 9.75601 38.997 9.86801 40.379 11.049L41.475 11.985C42.855 13.164 43.266 15.044 42.375 16.093C42.374 16.094 42.372 16.095 42.371 16.097L31.955 28.286C31.416 28.916 31.491 29.863 32.121 30.401C32.404 30.643 32.75 30.761 33.095 30.761C33.518 30.761 33.939 30.583 34.236 30.236L44.644 18.057C44.647 18.054 44.651 18.051 44.654 18.048L56.722 3.92101C57.122 3.45201 57.742 3.19401 58.466 3.19401C58.478 3.19401 58.49 3.19401 58.503 3.19401C59.346 3.20401 60.207 3.54801 60.926 4.16301L62.022 5.09901C62.742 5.71301 63.215 6.51001 63.358 7.34101C63.481 8.06301 63.328 8.72001 62.931 9.19601L40.431 35.528C39.893 36.158 39.968 37.105 40.597 37.643C40.88 37.884 41.226 38.002 41.571 38.002C41.994 38.002 42.415 37.824 42.712 37.477L65.187 11.174C65.191 11.17 65.195 11.167 65.199 11.163C65.201 11.161 65.203 11.158 65.206 11.155L71.235 4.09701C72.131 3.04801 74.055 3.16101 75.437 4.34201L76.533 5.27801C77.253 5.89201 77.727 6.68901 77.869 7.52001C77.993 8.25001 77.838 8.91501 77.431 9.39101L72.679 14.953C72.675 14.957 72.67 14.96 72.667 14.965L48.907 42.771C48.369 43.401 48.443 44.348 49.073 44.886C49.356 45.128 49.702 45.246 50.047 45.246C50.471 45.246 50.892 45.067 51.189 44.72L73.663 18.417C73.667 18.413 73.671 18.41 73.675 18.405C74.075 17.936 74.695 17.678 75.419 17.678C75.431 17.678 75.443 17.678 75.456 17.678C76.299 17.688 77.16 18.032 77.879 18.647L78.975 19.583C79.695 20.197 80.168 20.993 80.31 21.825C80.434 22.556 80.277 23.221 79.869 23.698Z" fill="#FF5B62"/>
</svg>
