<svg width="100" height="100" viewBox="0 0 100 100" fill="none" xmlns="http://www.w3.org/2000/svg">
<path d="M64.82 40.86C64.1966 40.8599 63.5789 40.9787 63 41.21V40.74C62.9974 39.3166 62.4307 37.9523 61.4242 36.9458C60.4177 35.9393 59.0534 35.3727 57.63 35.37H57.38C56.5134 35.3774 55.6619 35.5972 54.9 36.01C54.6495 34.7995 53.9899 33.7121 53.0319 32.9308C52.074 32.1495 50.8762 31.722 49.64 31.72C48.7258 31.7191 47.8245 31.935 47.01 32.35V24.59H56.51C56.9078 24.59 57.2894 24.432 57.5707 24.1507C57.852 23.8694 58.01 23.4879 58.01 23.09V8.50003C58.01 8.30221 57.9709 8.10633 57.8949 7.92369C57.8189 7.74105 57.7075 7.57524 57.5671 7.43582C57.4268 7.2964 57.2602 7.18612 57.0771 7.11133C56.8939 7.03654 56.6978 6.99871 56.5 7.00003H25.5C25.1022 7.00003 24.7206 7.15807 24.4393 7.43937C24.158 7.72068 24 8.10221 24 8.50003V23.09C24 23.4879 24.158 23.8694 24.4393 24.1507C24.7206 24.432 25.1022 24.59 25.5 24.59H36V61.29L27.21 54.09C25.4453 52.6135 23.1933 51.8485 20.8944 51.9447C18.5955 52.0409 16.4152 52.9913 14.78 54.61C14.517 54.87 14.3593 55.2179 14.3371 55.5871C14.315 55.9562 14.4299 56.3205 14.66 56.61L36 83.89V96.5C36 96.8979 36.158 97.2794 36.4393 97.5607C36.7206 97.842 37.1022 98 37.5 98C37.8978 98 38.2794 97.842 38.5607 97.5607C38.842 97.2794 39 96.8979 39 96.5V83.37C38.9986 83.0363 38.886 82.7126 38.68 82.45L17.92 55.89C19.0406 55.1765 20.3597 54.8393 21.6853 54.9274C23.0108 55.0156 24.2737 55.5245 25.29 56.38L36.55 65.61C36.769 65.7893 37.0343 65.9029 37.3152 65.9378C37.5961 65.9727 37.8812 65.9274 38.1374 65.8071C38.3936 65.6868 38.6106 65.4965 38.7632 65.2581C38.9159 65.0198 38.998 64.7431 39 64.46V19.61C39.0026 18.9823 39.2532 18.381 39.6971 17.9371C40.1409 17.4932 40.7422 17.2427 41.37 17.24H41.62C42.2495 17.24 42.8533 17.4894 43.2994 17.9336C43.7454 18.3778 43.9973 18.9806 44 19.61V51.5C44 51.8979 44.158 52.2794 44.4393 52.5607C44.7206 52.842 45.1022 53 45.5 53C45.8978 53 46.2794 52.842 46.5607 52.5607C46.842 52.2794 47 51.8979 47 51.5V37C47.0657 36.3574 47.3748 35.7643 47.8638 35.3422C48.3528 34.9202 48.9847 34.7011 49.63 34.73C50.2578 34.7327 50.859 34.9832 51.3029 35.4271C51.7468 35.871 51.9974 36.4723 52 37.1V40.5C52 40.5 52 40.58 52 40.62C52 40.66 52 40.7 52 40.74V51.5C52 51.8979 52.158 52.2794 52.4393 52.5607C52.7206 52.842 53.1022 53 53.5 53C53.8978 53 54.2794 52.842 54.5607 52.5607C54.842 52.2794 55 51.8979 55 51.5V40.75C55.0026 40.1223 55.2532 39.521 55.6971 39.0771C56.141 38.6332 56.7422 38.3827 57.37 38.38H57.62C58.2495 38.38 58.8533 38.6294 59.2994 39.0736C59.7454 39.5178 59.9974 40.1206 60 40.75V51.5C60 51.8979 60.158 52.2794 60.4393 52.5607C60.7206 52.842 61.1022 53 61.5 53C61.8978 53 62.2794 52.842 62.5607 52.5607C62.842 52.2794 63 51.8979 63 51.5V46C62.9649 45.7375 62.9853 45.4705 63.06 45.2164C63.1347 44.9622 63.2619 44.7266 63.4336 44.5248C63.6052 44.3231 63.8173 44.1596 64.0561 44.0451C64.295 43.9305 64.5552 43.8675 64.82 43.86C65.3913 43.8599 65.9398 44.0841 66.3475 44.4843C66.7552 44.8846 66.9895 45.4288 67 46V71.89C67.0042 73.9339 66.6034 75.9583 65.8208 77.8464C65.0381 79.7344 63.889 81.4486 62.44 82.89C62.2946 83.0351 62.1805 83.2084 62.1048 83.3994C62.0291 83.5903 61.9934 83.7947 62 84V95.5C62 95.8979 62.158 96.2794 62.4393 96.5607C62.7206 96.842 63.1022 97 63.5 97C63.8978 97 64.2794 96.842 64.5607 96.5607C64.842 96.2794 65 95.8979 65 95.5V84.57C68.2249 81.1371 70.0139 76.6002 70 71.89V46C69.9894 44.6332 69.439 43.3259 68.4687 42.3631C67.4984 41.4002 66.1869 40.86 64.82 40.86ZM41.63 14.23H41.38C39.9531 14.23 38.5847 14.7969 37.5758 15.8058C36.5668 16.8147 36 18.1832 36 19.61V21.61H27V10H55V21.59H47V19.59C46.9947 18.1684 46.4269 16.8066 45.4207 15.8022C44.4145 14.7979 43.0517 14.2327 41.63 14.23Z" fill="#FF5B62"/>
<path d="M79.5 13H64.5C64.1022 13 63.7206 13.158 63.4393 13.4393C63.158 13.7206 63 14.1022 63 14.5C63 14.8978 63.158 15.2794 63.4393 15.5607C63.7206 15.842 64.1022 16 64.5 16H79.5C79.8978 16 80.2794 15.842 80.5607 15.5607C80.842 15.2794 81 14.8978 81 14.5C81 14.1022 80.842 13.7206 80.5607 13.4393C80.2794 13.158 79.8978 13 79.5 13Z" fill="#FF5B62"/>
<path d="M64.67 22C64.3857 21.735 64.0096 21.5908 63.621 21.5976C63.2324 21.6045 62.8616 21.7619 62.5868 22.0368C62.3119 22.3116 62.1545 22.6823 62.1477 23.071C62.1408 23.4596 62.2851 23.8356 62.55 24.12L75.92 37.52C76.2109 37.734 76.5693 37.8359 76.9293 37.8069C77.2893 37.778 77.6267 37.6201 77.8796 37.3623C78.1326 37.1045 78.284 36.7641 78.3061 36.4036C78.3282 36.0431 78.2195 35.6868 78 35.4L64.67 22Z" fill="#FF5B62"/>
<path d="M21.06 26.9399C20.7788 26.659 20.3975 26.5012 20 26.5012C19.6025 26.5012 19.2213 26.659 18.94 26.9399L8.94 36.9399C8.79263 37.0772 8.67442 37.2428 8.59244 37.4268C8.51046 37.6108 8.46637 37.8095 8.46282 38.0109C8.45927 38.2123 8.49631 38.4123 8.57176 38.5991C8.6472 38.7859 8.75949 38.9555 8.90192 39.098C9.04436 39.2404 9.21403 39.3527 9.40081 39.4281C9.58758 39.5036 9.78764 39.5406 9.98905 39.5371C10.1905 39.5335 10.3891 39.4894 10.5731 39.4075C10.7571 39.3255 10.9227 39.2073 11.06 39.0599L21.06 29.0599C21.3409 28.7786 21.4987 28.3974 21.4987 27.9999C21.4987 27.6024 21.3409 27.2212 21.06 26.9399Z" fill="#FF5B62"/>
</svg>
