<svg width="100" height="100" viewBox="0 0 100 100" fill="none" xmlns="http://www.w3.org/2000/svg">
<path d="M85 19.2C85.6 18.6 85.6 17.7 85 17.1L84.9 17L76.2 10.3C75.9 10.1 75.6 10 75.3 10H42.5C41.7 10 41 10.7 41 11.5V22.5C41 23.3 41.7 24 42.5 24H51.6L44.2 34.7C43.7 35.4 43.9 36.3 44.6 36.8C45.3 37.3 46.2 37.1 46.7 36.4L55.2 24.1L62 27.3V34H58.7C58.2 34 57.7 34.2 57.5 34.7L37.3 64.7C37.1 64.9 37 65.2 37.1 65.5V88.5C37.1 89.3 37.8 90 38.6 90H79.6C80.4 90 81.1 89.3 81.1 88.5V35.5C81.1 34.7 80.4 34 79.6 34H76V28.3L85 19.2ZM40 87V68H78V87H40ZM78 65H40.7L59.5 37H78V65ZM65 34V26.3C65 25.7 64.7 25.2 64.1 25L56.1 21.2C55.9 21.1 55.7 21.1 55.5 21.1H44V13H74.7L81.6 18.3L73.4 26.6C73.1 26.9 73 27.3 73 27.7V34H65Z" fill="#FF5B62"/>
<path d="M31.5 22C32.8807 22 34 20.8807 34 19.5C34 18.1193 32.8807 17 31.5 17C30.1193 17 29 18.1193 29 19.5C29 20.8807 30.1193 22 31.5 22Z" fill="#FF5B62"/>
<path d="M22.5 29C23.8807 29 25 27.8807 25 26.5C25 25.1193 23.8807 24 22.5 24C21.1193 24 20 25.1193 20 26.5C20 27.8807 21.1193 29 22.5 29Z" fill="#FF5B62"/>
<path d="M22.5 16C23.8807 16 25 14.8807 25 13.5C25 12.1193 23.8807 11 22.5 11C21.1193 11 20 12.1193 20 13.5C20 14.8807 21.1193 16 22.5 16Z" fill="#FF5B62"/>
</svg>
