<svg width="86" height="56" viewBox="0 0 86 56" fill="none" xmlns="http://www.w3.org/2000/svg">
<path d="M78.527 0.356934H7.474C3.798 0.356934 0.808001 3.34593 0.808001 7.01893V11.3759V20.7599V48.9789C0.808001 52.6539 3.798 55.6429 7.474 55.6429H78.527C82.203 55.6429 85.193 52.6539 85.193 48.9789V20.7599V11.3759V7.01893C85.193 3.34593 82.203 0.356934 78.527 0.356934ZM7.474 3.35693H78.527C80.548 3.35693 82.193 4.99993 82.193 7.01893V9.87593H3.808V7.01893C3.808 4.99893 5.453 3.35693 7.474 3.35693ZM82.193 19.2599H3.808V12.8759H82.193V19.2599V19.2599ZM78.527 52.6429H7.474C5.453 52.6429 3.808 50.9989 3.808 48.9789V22.2599H82.193V48.9789C82.193 50.9989 80.549 52.6429 78.527 52.6429Z" fill="#FF5B62"/>
<path d="M14.036 37.875C11.353 37.875 9.171 40.058 9.171 42.74C9.171 45.422 11.354 47.605 14.036 47.605C16.718 47.605 18.901 45.422 18.901 42.74C18.901 40.058 16.719 37.875 14.036 37.875ZM14.036 44.605C13.008 44.605 12.171 43.768 12.171 42.74C12.171 41.712 13.008 40.875 14.036 40.875C15.064 40.875 15.901 41.712 15.901 42.74C15.901 43.768 15.064 44.605 14.036 44.605Z" fill="#FF5B62"/>
<path d="M62.253 41.397H24.126C23.297 41.397 22.626 42.069 22.626 42.897C22.626 43.725 23.297 44.397 24.126 44.397H62.253C63.081 44.397 63.753 43.725 63.753 42.897C63.753 42.069 63.081 41.397 62.253 41.397Z" fill="#FF5B62"/>
</svg>
