<svg width="78" height="90" viewBox="0 0 78 90" fill="none" xmlns="http://www.w3.org/2000/svg">
<path d="M39.465 52.7351C19.964 52.7351 4.09796 68.6021 4.09796 88.1061C4.09796 88.9341 4.76896 89.6061 5.59796 89.6061H73.332C74.16 89.6061 74.832 88.9341 74.832 88.1061C74.832 68.6021 58.967 52.7351 39.465 52.7351ZM7.13196 86.6061C7.91796 69.4501 22.12 55.7351 39.465 55.7351C56.81 55.7351 71.013 69.4501 71.798 86.6061H7.13196Z" fill="#FF5B62"/>
<path d="M38.876 8.37915C27.648 8.37915 18.513 17.5142 18.513 28.7422C18.513 39.9701 27.648 49.1051 38.876 49.1051C50.105 49.1051 59.239 39.9701 59.239 28.7422C59.239 17.5142 50.104 8.37915 38.876 8.37915ZM38.876 46.1051C29.302 46.1051 21.513 38.3162 21.513 28.7422C21.513 19.1682 29.302 11.3792 38.876 11.3792C48.45 11.3792 56.239 19.1682 56.239 28.7422C56.239 38.3162 48.45 46.1051 38.876 46.1051Z" fill="#FF5B62"/>
<path d="M14.138 39.889C14.967 39.889 15.638 39.218 15.638 38.389V18.977C15.638 18.881 15.627 18.788 15.61 18.697C19.629 9.37804 28.664 3.39304 38.877 3.39304C49.273 3.39304 58.459 9.59504 62.363 19.209V38.276C61.105 41.374 59.278 44.16 56.913 46.556C56.331 47.146 56.337 48.095 56.927 48.677C57.219 48.966 57.6 49.11 57.981 49.11C58.368 49.11 58.755 48.961 59.048 48.664C61.568 46.111 63.543 43.16 64.941 39.89H65.995C72.174 39.89 77.201 34.863 77.201 28.684C77.201 22.505 72.174 17.478 65.995 17.478H64.877C60.374 7.07504 50.281 0.394043 38.877 0.394043C27.467 0.394043 17.373 7.07404 12.872 17.478H12.006C5.82699 17.478 0.799988 22.505 0.799988 28.684C0.799988 34.863 5.82699 39.89 12.006 39.89H14.138V39.889ZM74.201 28.683C74.201 33.208 70.519 36.889 65.995 36.889H65.363V20.477H65.995C70.52 20.477 74.201 24.158 74.201 28.683ZM3.79999 28.683C3.79999 24.158 7.48099 20.477 12.006 20.477H12.638V36.889H12.006C7.48099 36.889 3.79999 33.208 3.79999 28.683Z" fill="#FF5B62"/>
</svg>
