<svg width="93" height="62" viewBox="0 0 93 62" fill="none" xmlns="http://www.w3.org/2000/svg">
<path d="M38.346 26.3662C30.706 26.3662 24.491 32.5802 24.491 40.2182C24.491 47.8562 30.706 54.0702 38.346 54.0702C45.982 54.0702 52.195 47.8562 52.195 40.2182C52.194 32.5802 45.982 26.3662 38.346 26.3662ZM38.346 51.0702C32.36 51.0702 27.491 46.2022 27.491 40.2182C27.491 34.2352 32.361 29.3662 38.346 29.3662C44.328 29.3662 49.195 34.2342 49.195 40.2182C49.194 46.2022 44.328 51.0702 38.346 51.0702Z" fill="#FF5B62"/>
<path d="M9.20999 26.3662C8.38099 26.3662 7.70999 27.0372 7.70999 27.8662V52.5702C7.70999 53.3992 8.38099 54.0702 9.20999 54.0702C10.039 54.0702 10.71 53.3992 10.71 52.5702V27.8662C10.71 27.0382 10.039 26.3662 9.20999 26.3662Z" fill="#FF5B62"/>
<path d="M67.008 26.3662C66.179 26.3662 65.508 27.0372 65.508 27.8662V52.5702C65.508 53.3992 66.179 54.0702 67.008 54.0702C67.837 54.0702 68.508 53.3992 68.508 52.5702V27.8662C68.508 27.0382 67.836 26.3662 67.008 26.3662Z" fill="#FF5B62"/>
<path d="M91.459 0.328125H18.609C17.78 0.328125 17.109 0.999125 17.109 1.82812V9.17613H10.45C9.621 9.17613 8.95 9.84712 8.95 10.6761V18.8481H1.586C0.756999 18.8481 0.0859985 19.5191 0.0859985 20.3481V60.0861C0.0859985 60.9151 0.756999 61.5861 1.586 61.5861H74.436C75.265 61.5861 75.936 60.9151 75.936 60.0861V51.9141H83.3C84.129 51.9141 84.8 51.2431 84.8 50.4141V43.0621H91.459C92.288 43.0621 92.959 42.3911 92.959 41.5621V1.82713C92.959 1.00013 92.287 0.328125 91.459 0.328125ZM72.936 58.5871H3.086V21.8491H72.936V58.5871ZM75.936 48.9151V20.3491C75.936 19.5201 75.265 18.8491 74.436 18.8491H11.95V12.1771H81.8V48.9151H75.936ZM89.959 40.0631H84.8V10.6761C84.8 9.84712 84.129 9.17613 83.3 9.17613H20.109V3.32812H89.959V40.0631Z" fill="#FF5B62"/>
</svg>
