<svg width="93" height="75" viewBox="0 0 93 75" fill="none" xmlns="http://www.w3.org/2000/svg">
<path d="M66.5086 53.267C66.5036 53.267 66.4976 53.267 66.4926 53.267C65.9696 53.261 65.4876 52.984 65.2196 52.535L50.9616 28.59C50.9216 28.523 50.8876 28.454 50.8586 28.382C49.0806 25.463 48.1426 22.118 48.1426 18.689C48.1606 8.378 56.5566 0 66.8626 0C66.8706 0 66.8776 0 66.8856 0C71.8886 0.007 76.5856 1.961 80.1116 5.501C83.6356 9.038 85.5716 13.74 85.5646 18.739C85.5646 22.117 84.6306 25.444 82.8606 28.381C82.8266 28.477 82.7816 28.569 82.7266 28.658L67.7816 52.563C67.5056 53 67.0246 53.267 66.5086 53.267ZM53.6776 27.287L66.5396 48.888L80.0156 27.333C80.0496 27.241 80.0926 27.151 80.1456 27.066C81.7276 24.539 82.5636 21.659 82.5636 18.738C82.5636 18.737 82.5636 18.737 82.5636 18.736C82.5706 14.536 80.9446 10.588 77.9856 7.617C75.0256 4.646 71.0816 3.006 66.8816 2.999C66.8756 2.999 66.8686 2.999 66.8616 2.999C58.2066 2.999 51.1566 10.034 51.1426 18.691C51.1426 21.645 51.9736 24.527 53.5446 27.023C53.5986 27.106 53.6426 27.195 53.6776 27.287Z" fill="#FF5B62"/>
<path d="M66.8676 25.716C66.8626 25.716 66.8576 25.716 66.8516 25.716C64.7396 25.716 62.7506 24.891 61.2556 23.393C59.7586 21.893 58.9366 19.901 58.9406 17.782C58.9426 15.67 59.7686 13.683 61.2666 12.189C62.7626 10.698 64.7486 9.87695 66.8616 9.87695C66.8636 9.87695 66.8666 9.87695 66.8696 9.87695C71.2346 9.88195 74.7836 13.44 74.7796 17.809C74.7776 19.924 73.9516 21.912 72.4536 23.406C70.9586 24.896 68.9756 25.716 66.8676 25.716ZM66.8606 12.877C65.5486 12.877 64.3136 13.387 63.3846 14.314C62.4546 15.241 61.9416 16.475 61.9406 17.787C61.9386 19.104 62.4496 20.342 63.3796 21.274C64.3076 22.204 65.5426 22.716 66.8546 22.716C66.8576 22.716 66.8606 22.716 66.8646 22.716C68.1766 22.716 69.4076 22.207 70.3356 21.282C71.2656 20.355 71.7786 19.12 71.7796 17.807C71.7816 15.093 69.5776 12.881 66.8656 12.878C66.8646 12.877 66.8626 12.877 66.8606 12.877ZM73.2796 17.808H73.2896H73.2796Z" fill="#FF5B62"/>
<path d="M91.3577 74.5448H1.49966C0.995656 74.5448 0.525656 74.2918 0.247656 73.8708C-0.0293438 73.4508 -0.0773438 72.9188 0.120656 72.4548L16.4657 34.2128C16.7017 33.6608 17.2447 33.3018 17.8447 33.3018H56.4127C57.2417 33.3018 57.9127 33.9728 57.9127 34.8018C57.9127 35.6308 57.2417 36.3018 56.4127 36.3018H18.8347L3.77166 71.5438H89.0847L74.4867 37.3938C74.1607 36.6318 74.5147 35.7508 75.2767 35.4248C76.0357 35.0998 76.9197 35.4518 77.2457 36.2148L92.7367 72.4538C92.9347 72.9178 92.8867 73.4498 92.6097 73.8698C92.3317 74.2918 91.8617 74.5448 91.3577 74.5448Z" fill="#FF5B62"/>
<path d="M66.6857 74.2763C65.9337 74.2763 65.2847 73.7123 65.1977 72.9463C65.1887 72.8723 64.2307 65.4923 53.8977 63.7393C52.9367 63.5763 51.4037 63.4273 49.6277 63.2563C39.8487 62.3103 30.9287 61.0823 29.2087 56.5093C28.0987 53.5593 29.7207 51.3103 31.0227 49.5033C32.4487 47.5253 32.9187 46.6613 32.1907 45.4203C31.7297 44.6343 30.2617 43.9943 28.8417 43.3753C26.0617 42.1633 22.2537 40.5033 22.2337 35.9533C22.2297 35.1243 22.8987 34.4503 23.7267 34.4463C23.7287 34.4463 23.7317 34.4463 23.7337 34.4463C24.5597 34.4463 25.2297 35.1133 25.2337 35.9393C25.2447 38.3593 27.0577 39.3243 30.0417 40.6253C31.9017 41.4363 33.8247 42.2743 34.7797 43.9033C36.5647 46.9473 34.7687 49.4393 33.4577 51.2583C32.2277 52.9643 31.4997 54.0793 32.0177 55.4533C33.2227 58.6563 44.4987 59.7463 49.9177 60.2713C51.7507 60.4483 53.3337 60.6013 54.3997 60.7823C66.9317 62.9093 68.1337 72.2123 68.1787 72.6073C68.2727 73.4303 67.6817 74.1733 66.8587 74.2673C66.8007 74.2733 66.7427 74.2763 66.6857 74.2763Z" fill="#FF5B62"/>
</svg>
