<svg width="278" height="34" viewBox="0 0 278 34" fill="none" xmlns="http://www.w3.org/2000/svg">
<path d="M3.024 27V1.8H12.852C16.788 1.8 20.004 3 22.5 5.4C24.996 7.776 26.244 10.776 26.244 14.4C26.244 18 24.984 21 22.464 23.4C19.968 25.8 16.764 27 12.852 27H3.024ZM8.568 21.996H12.852C15.132 21.996 16.968 21.3 18.36 19.908C19.752 18.492 20.448 16.656 20.448 14.4C20.448 12.168 19.74 10.344 18.324 8.928C16.932 7.512 15.108 6.804 12.852 6.804H8.568V21.996ZM39.7522 27.432C36.8242 27.432 34.4122 26.508 32.5162 24.66C30.6202 22.788 29.6722 20.364 29.6722 17.388C29.6722 14.58 30.5722 12.204 32.3722 10.26C34.1722 8.316 36.4522 7.344 39.2122 7.344C42.2602 7.344 44.5882 8.352 46.1962 10.368C47.8042 12.384 48.6082 14.868 48.6082 17.82C48.6082 18.108 48.5842 18.588 48.5362 19.26H35.1082C35.3722 20.484 35.9122 21.42 36.7282 22.068C37.5442 22.716 38.5762 23.04 39.8242 23.04C41.5282 23.04 43.0882 22.38 44.5042 21.06L47.6362 23.832C45.6922 26.232 43.0642 27.432 39.7522 27.432ZM35.0362 15.84H43.2802C43.1122 14.592 42.6682 13.596 41.9482 12.852C41.2522 12.108 40.3402 11.736 39.2122 11.736C38.1082 11.736 37.1842 12.108 36.4402 12.852C35.7202 13.572 35.2522 14.568 35.0362 15.84ZM57.6402 27.144L50.0442 7.704H55.8402L60.1602 20.628L64.5162 7.704H70.2042L62.6082 27.144H57.6402ZM81.4123 27.432C78.4843 27.432 76.0723 26.508 74.1763 24.66C72.2803 22.788 71.3323 20.364 71.3323 17.388C71.3323 14.58 72.2323 12.204 74.0323 10.26C75.8323 8.316 78.1123 7.344 80.8723 7.344C83.9203 7.344 86.2483 8.352 87.8563 10.368C89.4643 12.384 90.2683 14.868 90.2683 17.82C90.2683 18.108 90.2443 18.588 90.1963 19.26H76.7683C77.0323 20.484 77.5723 21.42 78.3883 22.068C79.2043 22.716 80.2363 23.04 81.4843 23.04C83.1883 23.04 84.7483 22.38 86.1643 21.06L89.2963 23.832C87.3523 26.232 84.7243 27.432 81.4123 27.432ZM76.6963 15.84H84.9403C84.7723 14.592 84.3283 13.596 83.6083 12.852C82.9123 12.108 82.0003 11.736 80.8723 11.736C79.7683 11.736 78.8443 12.108 78.1003 12.852C77.3803 13.572 76.9123 14.568 76.6963 15.84ZM94.5984 27V0.719999H100.07V27H94.5984ZM105.318 5.58V0.719999H111.078V5.58H105.318ZM105.462 27V7.704H110.934V27H105.462ZM114.453 27L121.221 17.208L114.705 7.704H120.573L124.173 13.32L127.809 7.704H133.533L127.017 17.1L133.821 27H127.953L124.065 20.988L120.177 27H114.453ZM136.88 27V21.24H142.712V27H136.88Z" fill="#FF5B62"/>
<path d="M152.869 27.36C150.973 27.36 149.389 26.832 148.117 25.776C146.869 24.72 146.245 23.256 146.245 21.384C146.245 19.344 146.941 17.808 148.333 16.776C149.749 15.744 151.645 15.228 154.021 15.228C155.629 15.228 157.201 15.492 158.737 16.02V15.696C158.737 13.344 157.357 12.168 154.597 12.168C152.941 12.168 151.165 12.516 149.269 13.212L147.901 9.036C150.253 8.004 152.749 7.488 155.389 7.488C158.293 7.488 160.465 8.208 161.905 9.648C163.297 11.04 163.993 13.092 163.993 15.804V27H158.701V24.912C157.237 26.544 155.293 27.36 152.869 27.36ZM154.525 23.58C155.797 23.58 156.829 23.268 157.621 22.644C158.413 21.996 158.809 21.18 158.809 20.196V19.224C157.777 18.744 156.613 18.504 155.317 18.504C154.117 18.504 153.181 18.744 152.509 19.224C151.861 19.68 151.537 20.352 151.537 21.24C151.537 21.96 151.813 22.536 152.365 22.968C152.917 23.376 153.637 23.58 154.525 23.58ZM177.342 32.832C174.198 32.832 171.354 32.16 168.81 30.816L170.682 26.712C172.77 27.888 174.942 28.476 177.198 28.476C180.87 28.476 182.706 26.724 182.706 23.22V22.284C181.842 23.34 180.918 24.132 179.934 24.66C178.974 25.164 177.798 25.416 176.406 25.416C174.03 25.416 172.002 24.6 170.322 22.968C168.666 21.336 167.838 19.128 167.838 16.344C167.838 13.584 168.678 11.4 170.358 9.792C172.038 8.16 174.054 7.344 176.406 7.344C178.806 7.344 180.882 8.304 182.634 10.224V7.704H188.106V22.644C188.106 26.076 187.29 28.608 185.658 30.24C183.93 31.968 181.158 32.832 177.342 32.832ZM174.642 19.656C175.53 20.472 176.646 20.88 177.99 20.88C179.334 20.88 180.45 20.46 181.338 19.62C182.25 18.78 182.706 17.688 182.706 16.344C182.706 15.048 182.25 13.98 181.338 13.14C180.45 12.3 179.334 11.88 177.99 11.88C176.646 11.88 175.53 12.3 174.642 13.14C173.754 13.98 173.31 15.072 173.31 16.416C173.31 17.736 173.754 18.816 174.642 19.656ZM202.139 27.432C199.211 27.432 196.799 26.508 194.903 24.66C193.007 22.788 192.059 20.364 192.059 17.388C192.059 14.58 192.959 12.204 194.759 10.26C196.559 8.316 198.839 7.344 201.599 7.344C204.647 7.344 206.975 8.352 208.583 10.368C210.191 12.384 210.995 14.868 210.995 17.82C210.995 18.108 210.971 18.588 210.923 19.26H197.495C197.759 20.484 198.299 21.42 199.115 22.068C199.931 22.716 200.963 23.04 202.211 23.04C203.915 23.04 205.475 22.38 206.891 21.06L210.023 23.832C208.079 26.232 205.451 27.432 202.139 27.432ZM197.423 15.84H205.667C205.499 14.592 205.055 13.596 204.335 12.852C203.639 12.108 202.727 11.736 201.599 11.736C200.495 11.736 199.571 12.108 198.827 12.852C198.107 13.572 197.639 14.568 197.423 15.84ZM215.073 27V7.704H220.545V10.44C222.153 8.376 224.037 7.344 226.197 7.344C228.261 7.344 229.869 7.98 231.021 9.252C232.173 10.524 232.749 12.276 232.749 14.508V27H227.277V16.236C227.277 14.964 226.989 13.992 226.413 13.32C225.837 12.648 225.021 12.312 223.965 12.312C222.909 12.312 222.069 12.648 221.445 13.32C220.845 13.992 220.545 14.964 220.545 16.236V27H215.073ZM246.611 27.432C243.731 27.432 241.331 26.46 239.411 24.516C237.515 22.572 236.567 20.196 236.567 17.388C236.567 14.604 237.527 12.24 239.447 10.296C241.367 8.328 243.779 7.344 246.683 7.344C249.779 7.344 252.335 8.472 254.351 10.728L251.147 13.968C249.803 12.696 248.303 12.06 246.647 12.06C245.303 12.06 244.187 12.576 243.299 13.608C242.411 14.64 241.967 15.9 241.967 17.388C241.967 18.9 242.411 20.172 243.299 21.204C244.211 22.212 245.399 22.716 246.863 22.716C248.375 22.716 249.851 22.032 251.291 20.664L254.495 23.904C253.439 25.056 252.311 25.932 251.111 26.532C249.911 27.132 248.411 27.432 246.611 27.432ZM262.501 32.868C260.773 32.868 259.153 32.424 257.641 31.536L259.477 27.576C260.317 28.08 261.097 28.332 261.817 28.332C262.681 28.332 263.317 27.912 263.725 27.072L256.165 7.704H261.961L266.353 20.844L270.565 7.704H276.253L268.837 27.468C268.093 29.46 267.253 30.852 266.317 31.644C265.381 32.46 264.109 32.868 262.501 32.868Z" fill="#3878FF"/>
</svg>
