<svg width="40" height="49" viewBox="0 0 40 49" fill="none" xmlns="http://www.w3.org/2000/svg">
<path d="M19.1168 46.7208C21.873 48.238 24.5877 49 27.1165 49C29.2334 48.9993 31.22 48.465 32.9881 47.3922L39.5054 43.4404C39.7404 43.298 39.9082 43.0703 39.972 42.8059C40.0358 42.5421 39.9894 42.264 39.8444 42.033L34.1953 33.0335C34.0504 32.8031 33.8181 32.6382 33.5498 32.5755C33.2794 32.5134 32.9978 32.5584 32.7635 32.7009L26.197 36.6847C25.1874 37.2967 23.8922 37.4923 22.6461 37.2231C21.4001 36.9532 20.3364 36.243 19.7276 35.2724L10.8029 21.0555C9.51254 18.9999 10.1629 16.2954 12.2528 15.027L19.0689 10.8905C19.5578 10.594 19.7089 9.96426 19.4073 9.48375L13.7575 0.486304C13.4559 0.0057948 12.8145 -0.144833 12.3263 0.153014L5.5165 4.28471C-2.07341 8.88942 -1.80714 20.9771 6.16552 33.6803C9.82041 39.505 14.4204 44.1363 19.1168 46.7208Z" fill="#FF5B62"/>
</svg>
