<svg width="45" height="45" viewBox="0 0 45 45" fill="none" xmlns="http://www.w3.org/2000/svg">
<path d="M41.4005 35.4017L41.4219 9.38412L11.2719 9.36923L11.251 34.7594L42.058 34.7748C42.237 34.7749 42.4087 34.8411 42.5352 34.9589C42.6617 35.0767 42.7326 35.2363 42.7325 35.4027C42.7324 35.5692 42.6612 35.7287 42.5345 35.8463C42.4078 35.9639 42.2361 36.0298 42.057 36.0297L4.25704 36.0089C4.08116 36.0044 3.91411 35.9363 3.79148 35.819C3.66885 35.7017 3.60034 35.5445 3.60052 35.3809L3.62242 8.73588C3.62255 8.56946 3.69378 8.40992 3.82046 8.29234C3.94714 8.17477 4.11888 8.10879 4.2979 8.10893L42.0979 8.12971C42.2769 8.12985 42.4486 8.19609 42.5751 8.31386C42.7016 8.43163 42.7725 8.59128 42.7724 8.7577L42.7505 35.4028C42.7504 35.5692 42.6792 35.7287 42.5525 35.8463C42.4258 35.9639 42.2541 36.0298 42.075 36.0297C41.896 36.0296 41.7244 35.9633 41.5979 35.8456C41.4714 35.7278 41.4004 35.5681 41.4005 35.4017ZM4.95101 34.7545L9.90101 34.7583L9.92193 9.36819L4.97193 9.36438L4.95101 34.7545Z" fill="#FF5B62"/>
<path d="M8.09954 11.4011L8.09769 13.8011C8.09757 13.9602 8.02633 14.1128 7.89966 14.2252C7.77299 14.3376 7.60125 14.4007 7.42223 14.4006C7.24321 14.4004 7.07157 14.3371 6.94507 14.2245C6.81857 14.1118 6.74757 13.9592 6.74769 13.8L6.74954 11.4C6.74966 11.2409 6.82089 11.0884 6.94757 10.9759C7.07424 10.8635 7.24598 10.8004 7.425 10.8006C7.60402 10.8007 7.77566 10.8641 7.90216 10.9767C8.02866 11.0893 8.09966 11.242 8.09954 11.4011Z" fill="#FF5B62"/>
<path d="M8.09954 17.2509L8.09769 19.6509C8.09757 19.8101 8.02633 19.9626 7.89966 20.0751C7.77299 20.1875 7.60125 20.2506 7.42223 20.2504C7.24321 20.2503 7.07157 20.1869 6.94507 20.0743C6.81857 19.9617 6.74757 19.809 6.74769 19.6499L6.74954 17.2499C6.74966 17.0908 6.82089 16.9382 6.94757 16.8258C7.07424 16.7134 7.24598 16.6503 7.425 16.6504C7.60402 16.6506 7.77566 16.7139 7.90216 16.8265C8.02866 16.9391 8.09966 17.0918 8.09954 17.2509Z" fill="#FF5B62"/>
<g clip-path="url(#clip0_0_6670)">
<path d="M20.9772 23.3095C20.8851 24.1008 20.5936 24.7122 20.1027 25.1439C19.6152 25.572 18.9658 25.7861 18.1544 25.7861C17.2749 25.7861 16.5692 25.4693 16.0374 24.8356C15.509 24.2019 15.2448 23.3541 15.2448 22.2922V21.5728C15.2448 20.8774 15.3675 20.266 15.613 19.7385C15.8618 19.2109 16.213 18.8067 16.6664 18.5258C17.1198 18.2415 17.6448 18.0994 18.2414 18.0994C19.0323 18.0994 19.6664 18.322 20.1436 18.7673C20.6209 19.2092 20.8988 19.8224 20.9772 20.6068H19.9902C19.905 20.0108 19.7192 19.5792 19.4328 19.312C19.1499 19.0448 18.7527 18.9112 18.2414 18.9112C17.6141 18.9112 17.1215 19.1441 16.7635 19.61C16.409 20.0759 16.2317 20.7387 16.2317 21.5985V22.323C16.2317 23.1348 16.4005 23.7805 16.738 24.2601C17.0755 24.7397 17.5476 24.9795 18.1544 24.9795C18.6999 24.9795 19.1175 24.8561 19.4073 24.6095C19.7005 24.3594 19.8948 23.9261 19.9902 23.3095H20.9772ZM25.0528 22.657H23.3039V25.6834H22.317V18.2021H24.7817C25.6203 18.2021 26.2647 18.394 26.7147 18.7776C27.1681 19.1613 27.3948 19.7196 27.3948 20.4527C27.3948 20.9185 27.2687 21.3245 27.0164 21.6704C26.7675 22.0164 26.4198 22.275 25.9732 22.4463L27.7221 25.6217V25.6834H26.6686L25.0528 22.657ZM23.3039 21.8503H24.8124C25.2999 21.8503 25.6868 21.7235 25.9732 21.47C26.263 21.2166 26.4079 20.8774 26.4079 20.4527C26.4079 19.9902 26.2698 19.6357 25.9937 19.3891C25.7209 19.1424 25.3254 19.0174 24.8073 19.014H23.3039V21.8503ZM30.0437 18.2021L32.4777 24.3063L34.9119 18.2021H36.1851V25.6834H35.2033V22.77L35.2954 19.6254L32.851 25.6834H32.0993L29.6601 19.6408L29.7573 22.77V25.6834H28.7755V18.2021H30.0437Z" fill="#FF5B62"/>
</g>
<defs>
<clipPath id="clip0_0_6670">
<rect width="21.6" height="8.55" fill="white" transform="translate(14.6362 17.7913)"/>
</clipPath>
</defs>
</svg>
