<svg width="49" height="49" viewBox="0 0 49 49" fill="none" xmlns="http://www.w3.org/2000/svg">
<path d="M41.9169 11.1584H7.56834C5.82181 11.1584 4.36636 12.6139 4.36636 14.3604V34.5911C4.36636 36.3862 5.82181 37.8416 7.56834 37.8416H41.8683C43.6634 37.8416 45.0703 36.3862 45.0703 34.6396V14.3604C45.1188 12.6139 43.6634 11.1584 41.9169 11.1584ZM7.56834 12.6139H41.8683C42.8386 12.6139 43.6149 13.3901 43.6149 14.3604V16.0099H5.82181V14.3604C5.82181 13.3901 6.59805 12.6139 7.56834 12.6139ZM43.6634 20.3763H5.82181V17.4654H43.6634V20.3763ZM41.9169 36.3862H7.56834C6.59805 36.3862 5.82181 35.6099 5.82181 34.6396V21.8317H43.6634V34.6396C43.6634 35.6099 42.8872 36.3862 41.9169 36.3862Z" fill="#FF5B62"/>
<path d="M33.7178 31.0496H15.2821C14.894 31.0496 14.5544 31.3892 14.5544 31.7773C14.5544 32.1654 14.894 32.505 15.2821 32.505H33.7178C34.1059 32.505 34.4455 32.1654 34.4455 31.7773C34.4455 31.3892 34.1059 31.0496 33.7178 31.0496Z" fill="#FF5B62"/>
<path d="M10.4307 32.99C11.1006 32.99 11.6436 32.4469 11.6436 31.7771C11.6436 31.1072 11.1006 30.5642 10.4307 30.5642C9.76086 30.5642 9.21783 31.1072 9.21783 31.7771C9.21783 32.4469 9.76086 32.99 10.4307 32.99Z" fill="#FF5B62"/>
</svg>
