<svg width="45" height="43" viewBox="0 0 45 43" fill="none" xmlns="http://www.w3.org/2000/svg">
<path d="M44.2708 6.03803C44.1321 5.87592 43.929 5.78266 43.7151 5.78266H9.15586L7.7467 1.06005C7.65344 0.749509 7.36828 0.537109 7.04456 0.537109H1.63982C1.23504 0.537109 0.90741 0.864743 0.90741 1.26952C0.90741 1.67431 1.23504 2.00194 1.63982 2.00194H6.49866L15.4019 31.8376C15.4029 31.841 15.4058 31.8439 15.4068 31.8473L16.5127 35.609C15.8145 36.3029 15.3819 37.2633 15.3819 38.3224C15.3819 40.4366 17.1011 42.1568 19.2139 42.1568C21.2588 42.1568 22.9292 40.5416 23.0322 38.5187H32.6312C32.6307 38.5455 32.6273 38.5719 32.6273 38.5992C32.6273 40.7115 34.3456 42.4303 36.4574 42.4303C38.5691 42.4303 40.2879 40.7115 40.2879 38.5992C40.2879 36.4869 38.5691 34.7682 36.4574 34.7682C34.8954 34.7682 33.5511 35.7096 32.9559 37.0538H22.8232C22.6357 36.5192 22.3335 36.0275 21.9209 35.6149C21.1977 34.8918 20.2368 34.4928 19.2153 34.4928C19.2148 34.4928 19.2144 34.4928 19.2144 34.4928C18.7119 34.4928 18.2329 34.5924 17.793 34.7692L17.085 32.3605H39.8743C40.2361 32.3605 40.5437 32.0964 40.5979 31.7389L44.4392 6.62543C44.4714 6.41449 44.4099 6.20014 44.2708 6.03803ZM36.4574 36.2335C37.7615 36.2335 38.8231 37.295 38.8231 38.5997C38.8231 39.9044 37.7615 40.9659 36.4574 40.9659C35.1532 40.9659 34.0921 39.9044 34.0921 38.5997C34.0921 37.295 35.1532 36.2335 36.4574 36.2335ZM19.2144 35.9581H19.2148C19.8452 35.9581 20.438 36.2042 20.8843 36.651C21.331 37.0978 21.5766 37.692 21.5766 38.3234C21.5766 39.63 20.5166 40.693 19.2134 40.693C17.9082 40.693 16.8462 39.63 16.8462 38.3234C16.8467 37.0192 17.9087 35.9581 19.2144 35.9581ZM39.2449 30.8962H16.6538L15.2691 26.1853C15.2515 26.1257 15.2251 26.0715 15.1949 26.0203L9.59287 7.24749H42.8621L39.2449 30.8962Z" fill="#FF5B62"/>
</svg>
