<svg width="49" height="48" viewBox="0 0 49 48" fill="none" xmlns="http://www.w3.org/2000/svg">
<path d="M44.0069 35.0399H36.26V15.36C36.26 13.8323 35.6405 12.3672 34.5378 11.287C33.4351 10.2068 31.9395 9.59995 30.38 9.59995H9.065C8.9523 9.59995 8.8396 9.57115 8.722 9.56155C7.9069 9.51105 7.08985 9.62375 6.3207 9.89278C5.55154 10.1618 4.8464 10.5815 4.2483 11.1264C3.69336 11.6298 3.25064 12.2401 2.94792 12.9191C2.64521 13.5981 2.48903 14.331 2.4892 15.072C2.4892 15.2629 2.56663 15.446 2.70447 15.5811C2.84231 15.7161 3.02926 15.792 3.2242 15.792H12.74V35.3807C12.7155 36.8631 13.2691 38.2987 14.288 39.3949C15.3069 40.4911 16.7142 41.1653 18.2231 41.28H18.2525H18.3701H38.8815C39.6376 41.2959 40.3896 41.1657 41.0943 40.8969C41.7991 40.6281 42.4429 40.2259 42.9889 39.7133C43.535 39.2007 43.9726 38.5877 44.2767 37.9094C44.5808 37.231 44.7456 36.5007 44.7615 35.7599C44.7615 35.6638 44.7419 35.5685 44.7037 35.4799C44.6656 35.3913 44.6097 35.311 44.5393 35.2439C44.469 35.1768 44.3856 35.1242 44.2942 35.0891C44.2027 35.0541 44.1051 35.0374 44.0069 35.0399ZM4.0278 14.352C4.19053 13.5172 4.62148 12.7553 5.2577 12.1776C5.99037 11.5214 6.92425 11.1213 7.9135 11.04C7.97047 11.0466 8.02803 11.0466 8.085 11.04H9.016C9.88217 11.1816 10.6859 11.572 11.3253 12.1616C11.9647 12.7512 12.4111 13.5136 12.6077 14.352H4.0278ZM18.3113 39.8399C17.1768 39.7474 16.121 39.2346 15.359 38.4061C14.597 37.5776 14.1861 36.4957 14.21 35.3807V15.4512C14.2132 14.623 14.0406 13.8032 13.7032 13.0438C13.3658 12.2844 12.8709 11.602 12.25 11.04H30.38C31.5496 11.04 32.6713 11.4951 33.4983 12.3053C34.3254 13.1154 34.79 14.2142 34.79 15.36V35.0399H23.7258C23.5309 35.0399 23.3439 35.1158 23.2061 35.2508C23.0682 35.3859 22.9908 35.569 22.9908 35.7599C22.9875 36.3016 22.8705 36.8367 22.6471 37.3321C22.4237 37.8276 22.0987 38.2727 21.6923 38.6399C21.242 39.0551 20.7097 39.3757 20.1283 39.5821C19.5469 39.7884 18.9286 39.8762 18.3113 39.8399ZM38.8913 39.8399H22.54L22.6919 39.7055C23.6292 38.8579 24.2371 37.7178 24.4118 36.4799H43.2033C42.9922 37.4439 42.4457 38.3061 41.6574 38.919C40.869 39.5319 39.8878 39.8574 38.8815 39.8399H38.8913Z" fill="#FF5B62"/>
<path d="M17.885 20.16H31.115C31.3099 20.16 31.4968 20.0841 31.6347 19.9491C31.7725 19.8141 31.85 19.6309 31.85 19.44C31.85 19.249 31.7725 19.0659 31.6347 18.9309C31.4968 18.7958 31.3099 18.72 31.115 18.72H17.885C17.69 18.72 17.5031 18.7958 17.3652 18.9309C17.2274 19.0659 17.15 19.249 17.15 19.44C17.15 19.6309 17.2274 19.8141 17.3652 19.9491C17.5031 20.0841 17.69 20.16 17.885 20.16Z" fill="#FF5B62"/>
<path d="M17.885 24.48H31.115C31.3099 24.48 31.4968 24.4042 31.6347 24.2692C31.7725 24.1341 31.85 23.951 31.85 23.76C31.85 23.5691 31.7725 23.3859 31.6347 23.2509C31.4968 23.1159 31.3099 23.04 31.115 23.04H17.885C17.69 23.04 17.5031 23.1159 17.3652 23.2509C17.2274 23.3859 17.15 23.5691 17.15 23.76C17.15 23.951 17.2274 24.1341 17.3652 24.2692C17.5031 24.4042 17.69 24.48 17.885 24.48Z" fill="#FF5B62"/>
<path d="M25.48 28.0799C25.48 27.8889 25.4025 27.7058 25.2647 27.5707C25.1268 27.4357 24.9399 27.3599 24.745 27.3599H17.885C17.69 27.3599 17.5031 27.4357 17.3652 27.5707C17.2274 27.7058 17.15 27.8889 17.15 28.0799C17.15 28.2708 17.2274 28.454 17.3652 28.589C17.5031 28.724 17.69 28.7999 17.885 28.7999H24.745C24.9399 28.7999 25.1268 28.724 25.2647 28.589C25.4025 28.454 25.48 28.2708 25.48 28.0799Z" fill="#FF5B62"/>
</svg>
