<svg width="49" height="49" viewBox="0 0 49 49" fill="none" xmlns="http://www.w3.org/2000/svg">
<path d="M26.7819 19.7962C26.4787 19.5286 26.0163 19.557 25.7482 19.8607L15.5965 31.3615C15.3289 31.6647 15.3577 32.1276 15.6609 32.3952C15.8001 32.5182 15.9729 32.5783 16.1453 32.5783C16.3479 32.5783 16.5501 32.4948 16.6946 32.3307L26.8464 20.8299C27.1139 20.5267 27.0851 20.0643 26.7819 19.7962Z" fill="#FF5B62"/>
<path d="M17.5257 24.7679C18.3489 24.4163 18.9866 23.7645 19.3215 22.9334C19.6565 22.1014 19.6472 21.1893 19.2966 20.3646C18.9456 19.5394 18.2937 18.9003 17.4627 18.5658C15.7483 17.8739 13.7884 18.7084 13.0926 20.4266C12.7576 21.2587 12.7679 22.1712 13.1219 22.9969C13.4749 23.8216 14.1282 24.4598 14.9593 24.7943C15.3641 24.9573 15.7874 25.0384 16.2107 25.0384C16.6565 25.0389 17.1028 24.9486 17.5257 24.7679ZM14.4681 22.4207C14.2689 21.9554 14.263 21.4418 14.451 20.9755C14.7498 20.2372 15.4617 19.7875 16.2112 19.7875C16.4456 19.7875 16.6844 19.8314 16.9148 19.9247C17.3836 20.1132 17.7503 20.473 17.9485 20.9379C18.1467 21.4027 18.1511 21.9168 17.9622 22.3856C17.7732 22.8548 17.4138 23.222 16.95 23.4202C16.4856 23.618 15.9734 23.6234 15.5062 23.4354C15.0364 23.2469 14.6678 22.8861 14.4681 22.4207Z" fill="#FF5B62"/>
<path d="M42.2701 21.3841C42.2647 21.1897 42.1817 21.0057 42.0401 20.8719C41.899 20.7386 41.7149 20.6668 41.5152 20.6727L37.3053 20.8011L38.2555 17.8104C38.3141 17.6253 38.297 17.4242 38.2076 17.2518C38.1183 17.0789 37.964 16.9491 37.7789 16.8905L30.8249 14.681L29.6398 1.91064C29.6047 1.53418 29.2468 1.24609 28.8684 1.24609C28.5627 1.24609 28.2893 1.43603 28.1823 1.72216L24.1326 12.5551L12.0565 8.7177C11.6727 8.59612 11.2596 8.80852 11.1366 9.19426L2.96334 34.9157C2.84078 35.3014 3.05416 35.713 3.4399 35.8356L16.5628 40.006L16.7572 46.8711C16.7684 47.2681 17.0941 47.583 17.4891 47.583C17.4964 47.583 17.5032 47.583 17.5101 47.583L42.2569 46.8853C42.4507 46.8799 42.6348 46.7974 42.7686 46.6563C42.9019 46.5152 42.9737 46.3267 42.9683 46.1324L42.2701 21.3841ZM28.4689 5.13961L29.3093 14.1991L25.5305 12.9984L28.4689 5.13961ZM12.3114 10.3354L36.6378 18.0648L28.9084 42.3912L4.58149 34.6608L12.3114 10.3354ZM18.201 46.0962L18.0418 40.4747L29.1628 44.0088C29.2351 44.0318 29.3098 44.043 29.3845 44.043C29.5007 44.043 29.6164 44.0152 29.7209 43.961C29.8937 43.8716 30.0236 43.7173 30.0822 43.5323L36.8346 22.281L40.8258 22.159L41.483 45.44L18.201 46.0962Z" fill="#FF5B62"/>
<path d="M26.3005 28.5802C25.469 28.2448 24.5559 28.2531 23.7298 28.6051C22.9046 28.9567 22.2654 29.608 21.9305 30.4401C21.5955 31.2711 21.6053 32.1832 21.9573 33.0084C22.3094 33.8336 22.9622 34.4723 23.7937 34.8058C24.199 34.9693 24.6238 35.0509 25.0476 35.0509C25.4934 35.0509 25.9387 34.9605 26.3606 34.7809C27.1858 34.4298 27.8244 33.7779 28.1594 32.9454C28.4944 32.1134 28.4851 31.2013 28.1345 30.3776C27.7839 29.5529 27.1321 28.9147 26.3005 28.5802ZM26.801 32.3985C26.6125 32.8673 26.2527 33.2345 25.7878 33.4327C25.3235 33.631 24.8103 33.6354 24.3406 33.4464C23.8714 33.2584 23.5037 32.8985 23.305 32.4332C23.1067 31.9684 23.1013 31.4547 23.2898 30.9869C23.4783 30.5182 23.8386 30.1505 24.304 29.9523C24.5423 29.8507 24.7932 29.7999 25.0447 29.7999C25.2844 29.7999 25.5242 29.8463 25.7537 29.9386C26.2224 30.1271 26.5896 30.4869 26.7873 30.9508C26.9846 31.4152 26.9895 31.9293 26.801 32.3985Z" fill="#FF5B62"/>
</svg>
