<svg width="49" height="49" viewBox="0 0 49 49" fill="none" xmlns="http://www.w3.org/2000/svg">
<path d="M42.5398 29.9973H18.7589V6.21694C18.7589 5.81275 18.4318 5.4856 18.0276 5.4856H6.21639C5.8122 5.4856 5.48505 5.81275 5.48505 6.21694V30.7286V42.5403C5.48505 42.9445 5.8122 43.2717 6.21639 43.2717H42.5398C42.9435 43.2717 43.2711 42.9445 43.2711 42.5403V30.7286C43.2711 30.3245 42.9435 29.9973 42.5398 29.9973ZM17.2962 6.94828V29.9973H6.94773V25.11H10.4967C10.9009 25.11 11.228 24.7828 11.228 24.3786C11.228 23.9744 10.9009 23.6473 10.4967 23.6473H6.94773V18.9082H13.4528C13.857 18.9082 14.1841 18.581 14.1841 18.1768C14.1841 17.7726 13.857 17.4455 13.4528 17.4455H6.94773V12.7064H10.4967C10.9009 12.7064 11.228 12.3792 11.228 11.975C11.228 11.5709 10.9009 11.2437 10.4967 11.2437H6.94773V6.94828H17.2962ZM41.8084 41.809H6.94773V31.46H41.8084V41.809Z" fill="#FF5B62"/>
<path d="M36.6325 39.7287C38.339 39.7287 39.7271 38.3401 39.7271 36.6336C39.7271 34.9272 38.3385 33.5391 36.6325 33.5391C34.9261 33.5391 33.5375 34.9272 33.5375 36.6336C33.5375 38.3401 34.9261 39.7287 36.6325 39.7287ZM36.6325 35.0017C37.5321 35.0017 38.2644 35.7336 38.2644 36.6336C38.2644 37.5337 37.5321 38.266 36.6325 38.266C35.7325 38.266 35.0002 37.5337 35.0002 36.6336C35.0002 35.7341 35.7325 35.0017 36.6325 35.0017Z" fill="#FF5B62"/>
</svg>
