<svg width="45" height="30" viewBox="0 0 45 30" fill="none" xmlns="http://www.w3.org/2000/svg">
<path d="M44.085 15.2373H40.2965V8.84375C40.2965 8.43896 39.9684 8.11133 39.5641 8.11133H27.6986V1.73096C27.6986 1.32617 27.3705 0.998535 26.9662 0.998535H0.743088C0.338311 0.998535 0.0106812 1.32617 0.0106812 1.73096V25.7471C0.0106812 26.1514 0.338311 26.4795 0.743088 26.4795H6.86504C7.11894 28.3677 8.73609 29.8296 10.6921 29.8296C12.6481 29.8296 14.2653 28.3677 14.5192 26.4795H26.9662H31.6956C31.9495 28.3677 33.5676 29.8296 35.5256 29.8296C37.4836 29.8296 39.1017 28.3677 39.3561 26.4795H44.0855C44.4898 26.4795 44.8179 26.1514 44.8179 25.7471V15.9697C44.8174 15.5649 44.4893 15.2373 44.085 15.2373ZM10.6921 28.3647C9.3684 28.3647 8.29128 27.2871 8.29128 25.9624C8.29128 24.6377 9.3684 23.5601 10.6921 23.5601C12.0158 23.5601 13.0929 24.6377 13.0929 25.9624C13.0929 27.2871 12.0163 28.3647 10.6921 28.3647ZM10.6921 22.0952C8.88795 22.0952 7.37333 23.3398 6.94902 25.0147H1.4755V2.46338H26.2338V8.84375V15.9697V25.0142H14.4357C14.0114 23.3398 12.4963 22.0952 10.6921 22.0952ZM35.5256 28.3647C34.1999 28.3647 33.1218 27.2871 33.1218 25.9624C33.1218 24.6377 34.1999 23.5601 35.5256 23.5601C36.8513 23.5601 37.9299 24.6377 37.9299 25.9624C37.9299 27.2871 36.8508 28.3647 35.5256 28.3647ZM43.3526 25.0142H39.2721C38.8473 23.3394 37.3312 22.0947 35.5256 22.0947C33.72 22.0947 32.2039 23.3394 31.7796 25.0142H27.6991V15.9697V9.57617H38.8322V15.9697C38.8322 16.374 39.1603 16.7022 39.5646 16.7022H43.3531V25.0142H43.3526Z" fill="#FF5B62"/>
</svg>
