<svg width="38" height="43" viewBox="0 0 38 43" fill="none" xmlns="http://www.w3.org/2000/svg">
<path d="M19.4023 23.4033C9.20215 23.4033 0.905334 31.7001 0.905334 41.9003C0.905334 42.2908 1.24697 42.6324 1.63741 42.6324H37.1185C37.5089 42.6324 37.8506 42.2908 37.8506 41.9003C37.8994 31.7001 29.6025 23.4033 19.4023 23.4033ZM19.4023 24.8675C21.6474 24.8675 23.8436 25.3067 25.7958 26.1364L19.6464 30.6752L13.0577 26.1364C15.0099 25.3067 17.1573 24.8675 19.4023 24.8675ZM2.41828 41.1683C2.66231 34.9701 6.32266 29.6015 11.496 26.8197L19.2559 32.1394C19.4023 32.237 19.5488 32.2858 19.6464 32.2858C19.7928 32.2858 19.9392 32.237 20.0856 32.1394L27.3087 26.8197C32.5308 29.5527 36.1424 34.9212 36.3864 41.1683H2.41828Z" fill="#FF5B62"/>
<path d="M19.1095 21.4024C24.966 21.4024 29.7489 16.6196 29.7489 10.763C29.7489 4.9064 24.966 0.123535 19.1095 0.123535C13.2529 0.123535 8.47003 4.9064 8.47003 10.763C8.47003 16.6684 13.2529 21.4024 19.1095 21.4024ZM19.1095 1.63648C23.0139 1.63648 26.3326 4.07672 27.6503 7.49306C27.2111 7.24903 26.6742 6.9562 26.1862 6.66338C24.1364 5.44326 22.721 4.66238 21.7937 4.75999C19.9392 4.9064 18.8654 5.63848 17.6941 6.37055C17.0597 6.76099 16.3764 7.20023 15.5467 7.54186L15.3027 7.63947C13.4969 8.37154 12.3744 8.85959 10.1782 9.10361C10.9103 4.8576 14.6194 1.63648 19.1095 1.63648ZM9.93418 10.5678C12.5696 10.3237 13.8874 9.78688 15.7907 8.9572L16.0348 8.85959C17.0109 8.46915 17.7429 7.9811 18.4262 7.54186C19.4999 6.85859 20.4272 6.27294 21.8913 6.17533C22.4282 6.12652 24.2828 7.24903 25.4053 7.88349C26.5278 8.56676 27.4551 9.10361 28.1384 9.29883C28.236 9.78688 28.2848 10.2749 28.2848 10.763C28.2848 15.7899 24.1852 19.9383 19.1095 19.9383C14.0338 19.9383 9.93418 15.8387 9.93418 10.763C9.93418 10.7142 9.93418 10.6654 9.93418 10.5678Z" fill="#FF5B62"/>
</svg>
