<svg width="101" height="101" viewBox="0 0 101 101" fill="none" xmlns="http://www.w3.org/2000/svg">
<path d="M78.528 60.893C77.789 60.516 76.886 60.807 76.508 61.543L64.696 84.582C64.318 85.319 64.609 86.224 65.346 86.602C65.566 86.714 65.799 86.768 66.03 86.768C66.575 86.768 67.1 86.47 67.366 85.952L79.178 62.913C79.557 62.175 79.266 61.271 78.528 60.893Z" fill="#FF5B62"/>
<path d="M98.848 72.445L86.335 59.963C85.747 59.378 84.798 59.38 84.214 59.965C83.628 60.552 83.63 61.502 84.216 62.087L95.664 73.507L84.216 84.927C83.63 85.512 83.628 86.462 84.214 87.049C84.507 87.342 84.891 87.489 85.276 87.489C85.659 87.489 86.043 87.343 86.336 87.051L98.849 74.569C99.131 74.288 99.289 73.905 99.289 73.507C99.289 73.109 99.13 72.726 98.848 72.445Z" fill="#FF5B62"/>
<path d="M58.571 59.966C57.986 59.38 57.037 59.379 56.45 59.964L43.94 72.446C43.658 72.728 43.5 73.11 43.5 73.508C43.5 73.906 43.658 74.288 43.94 74.57L56.45 87.052C56.743 87.344 57.126 87.49 57.51 87.49C57.895 87.49 58.279 87.343 58.572 87.05C59.158 86.464 59.156 85.514 58.57 84.928L47.125 73.508L58.57 62.088C59.155 61.502 59.157 60.552 58.571 59.966Z" fill="#FF5B62"/>
<path d="M35.5 77.893H5.796C6.572 63.669 18.317 52.335 32.644 52.335C36.718 52.335 40.631 53.229 44.275 54.991C45.022 55.352 45.919 55.039 46.279 54.294C46.639 53.548 46.328 52.651 45.582 52.291C41.527 50.33 37.175 49.335 32.644 49.335C16.164 49.335 2.755 62.819 2.755 79.393C2.755 80.222 3.427 80.893 4.255 80.893H35.5C36.328 80.893 37 80.222 37 79.393C37 78.564 36.328 77.893 35.5 77.893Z" fill="#FF5B62"/>
<path d="M33.241 45.912C42.898 45.912 50.755 38.057 50.755 28.402C50.755 18.748 42.899 10.893 33.241 10.893C23.589 10.893 15.735 18.747 15.735 28.402C15.735 38.057 23.589 45.912 33.241 45.912ZM33.241 13.893C41.244 13.893 47.755 20.402 47.755 28.402C47.755 36.403 41.244 42.912 33.241 42.912C25.242 42.912 18.735 36.403 18.735 28.402C18.735 20.402 25.242 13.893 33.241 13.893Z" fill="#FF5B62"/>
</svg>
