<svg width="77" height="65" viewBox="0 0 77 65" fill="none" xmlns="http://www.w3.org/2000/svg">
<path d="M76.6 7.48L70.1 0.480001C69.9559 0.334873 69.7846 0.219691 69.5958 0.141088C69.407 0.0624862 69.2045 0.0220184 69 0.0220184C68.7955 0.0220184 68.593 0.0624862 68.4042 0.141088C68.2154 0.219691 68.0441 0.334873 67.9 0.480001L61.4 7.48C61.1937 7.77891 61.1029 8.14251 61.1443 8.50331C61.1858 8.86412 61.3568 9.19762 61.6255 9.44192C61.8943 9.68622 62.2425 9.82473 62.6056 9.83174C62.9687 9.83874 63.322 9.71376 63.6 9.48L68 4.78V62H58V12.5C58 12.1022 57.842 11.7206 57.5607 11.4393C57.2794 11.158 56.8978 11 56.5 11H44.5C44.1022 11 43.7206 11.158 43.4393 11.4393C43.158 11.7206 43 12.1022 43 12.5V62H38V25.5C38 25.1022 37.842 24.7206 37.5607 24.4393C37.2794 24.158 36.8978 24 36.5 24H24.5C24.1022 24 23.7206 24.158 23.4393 24.4393C23.158 24.7206 23 25.1022 23 25.5V62H19V37.5C19 37.1022 18.842 36.7206 18.5607 36.4393C18.2794 36.158 17.8978 36 17.5 36H5.5C5.10218 36 4.72064 36.158 4.43934 36.4393C4.15804 36.7206 4 37.1022 4 37.5V62H1.5C1.10218 62 0.720644 62.158 0.43934 62.4393C0.158035 62.7206 0 63.1022 0 63.5C0 63.8978 0.158035 64.2794 0.43934 64.5607C0.720644 64.842 1.10218 65 1.5 65H69.5C69.8978 65 70.2794 64.842 70.5607 64.5607C70.842 64.2794 71 63.8978 71 63.5V5.86L74.4 9.52C74.678 9.75376 75.0313 9.87874 75.3944 9.87173C75.7575 9.86473 76.1057 9.72623 76.3745 9.48192C76.6432 9.23762 76.8142 8.90412 76.8557 8.54331C76.8971 8.18251 76.8063 7.81891 76.6 7.52V7.48ZM46 14H55V62H46V14ZM26 27H35V62H26V27ZM7 39H16V62H7V39Z" fill="#FF5B62"/>
</svg>
