<svg width="1033" height="799" viewBox="0 0 1033 799" fill="none" xmlns="http://www.w3.org/2000/svg">
<path fill-rule="evenodd" clip-rule="evenodd" d="M552.535 171.434C647.426 219.043 747.486 279.872 779.286 366.258C812.566 456.669 766.654 533.667 707.881 593.452C645.876 656.525 565.667 717.515 455.082 696.047C345.749 674.821 262.322 581.394 196.189 494.113C136.82 415.761 97.5261 327.742 118.801 252.237C139.224 179.754 215.124 141.585 299.973 125.778C379.783 110.91 468.566 129.306 552.535 171.434Z" fill="#3878FF" fill-opacity="0.1"/>
<path fill-rule="evenodd" clip-rule="evenodd" d="M1023.57 398.793C1031 335.2 1024.82 265.371 934.429 225.689C839.826 184.158 704.316 188.835 581.991 204.937C452.937 221.925 313.161 249.273 259.65 314.512C206.745 379.011 268.222 448.373 334.388 506.804C393.786 559.259 480.784 603.408 596.096 611.629C706.793 619.521 813.285 588.544 896.91 546.908C975.569 507.745 1017 455.066 1023.57 398.793Z" fill="#3878FF" fill-opacity="0.1"/>
<path fill-rule="evenodd" clip-rule="evenodd" d="M886.892 448.668C898.139 397.802 898.603 340.79 826.837 301.369C751.728 260.111 639.006 252.942 536.3 256.085C427.945 259.402 309.871 270.236 260.286 318.708C211.262 366.631 256.68 427.735 306.861 480.372C351.908 527.625 420.503 570.388 515.448 586.362C606.593 601.697 697.361 585.235 770.025 558.299C838.373 532.962 876.939 493.678 886.892 448.668Z" fill="#3878FF" fill-opacity="0.1"/>
<path fill-rule="evenodd" clip-rule="evenodd" d="M883.409 428.508C897.448 367.209 897.791 298.45 806.653 250.596C711.27 200.513 568.355 191.384 438.181 194.734C300.847 198.269 151.226 210.83 88.5811 269.078C26.645 326.667 84.4784 400.557 148.312 464.258C205.616 521.442 292.749 573.311 413.167 592.985C528.766 611.871 643.751 592.407 735.742 560.231C822.27 529.966 870.987 482.752 883.409 428.508Z" fill="#3878FF" fill-opacity="0.1"/>
</svg>
