<svg width="220" height="185" viewBox="0 0 220 185" fill="none" xmlns="http://www.w3.org/2000/svg">
<path fill-rule="evenodd" clip-rule="evenodd" d="M107.133 184.203C140.57 186.377 177.503 185.392 199.798 164.395C223.133 142.419 222.706 110.51 216.053 81.6259C209.034 51.1529 196.711 18.0881 163.099 5.0621C129.868 -7.81648 92.3499 6.17978 60.5271 21.3525C31.9596 34.9732 7.35787 55.1424 1.28449 82.2135C-4.54579 108.201 10.1932 133.46 30.8997 153.412C50.3765 172.179 77.5441 182.279 107.133 184.203Z" fill="#E4EDFF"/>
<path d="M31.42 123.528C26.9613 123.528 23.1187 121.988 19.892 118.908L23.984 114.024C26.448 116.253 28.8973 117.368 31.332 117.368C32.9453 117.368 34.2067 116.987 35.116 116.224C36.0253 115.461 36.48 114.391 36.48 113.012C36.48 111.721 35.9813 110.709 34.984 109.976C33.9867 109.213 32.6667 108.832 31.024 108.832C29.3813 108.832 27.6653 109.213 25.876 109.976L21.96 107.38L22.84 92.2H41.76V98.14H28.648L28.296 103.464C29.704 103.112 31.0533 102.936 32.344 102.936C35.5413 102.936 38.1373 103.757 40.132 105.4C42.1267 107.043 43.124 109.536 43.124 112.88C43.124 116.136 42.0533 118.732 39.912 120.668C37.8 122.575 34.9693 123.528 31.42 123.528ZM84.8223 118.996C82.2703 122.017 78.9703 123.528 74.9223 123.528C70.8743 123.528 67.5889 122.017 65.0663 118.996C62.5436 115.975 61.2823 112.176 61.2823 107.6C61.2823 103.053 62.5583 99.2693 65.1103 96.248C67.6623 93.1973 70.9623 91.672 75.0103 91.672C79.0289 91.672 82.2996 93.1827 84.8223 96.204C87.3743 99.2253 88.6503 103.024 88.6503 107.6C88.6503 112.147 87.3743 115.945 84.8223 118.996ZM70.0823 114.64C71.3436 116.488 72.9863 117.412 75.0103 117.412C77.0343 117.412 78.6476 116.503 79.8503 114.684C81.0823 112.836 81.6983 110.475 81.6983 107.6C81.6983 104.784 81.0676 102.452 79.8063 100.604C78.5449 98.7267 76.9169 97.788 74.9223 97.788C72.9276 97.788 71.3143 98.712 70.0823 100.56C68.8503 102.379 68.2343 104.725 68.2343 107.6C68.2343 110.445 68.8503 112.792 70.0823 114.64ZM116.963 118.996C114.411 122.017 111.111 123.528 107.063 123.528C103.015 123.528 99.7295 122.017 97.2069 118.996C94.6842 115.975 93.4229 112.176 93.4229 107.6C93.4229 103.053 94.6989 99.2693 97.2509 96.248C99.8029 93.1973 103.103 91.672 107.151 91.672C111.17 91.672 114.44 93.1827 116.963 96.204C119.515 99.2253 120.791 103.024 120.791 107.6C120.791 112.147 119.515 115.945 116.963 118.996ZM102.223 114.64C103.484 116.488 105.127 117.412 107.151 117.412C109.175 117.412 110.788 116.503 111.991 114.684C113.223 112.836 113.839 110.475 113.839 107.6C113.839 104.784 113.208 102.452 111.947 100.604C110.686 98.7267 109.058 97.788 107.063 97.788C105.068 97.788 103.455 98.712 102.223 100.56C100.991 102.379 100.375 104.725 100.375 107.6C100.375 110.445 100.991 112.792 102.223 114.64ZM149.104 118.996C146.552 122.017 143.252 123.528 139.204 123.528C135.156 123.528 131.87 122.017 129.348 118.996C126.825 115.975 125.564 112.176 125.564 107.6C125.564 103.053 126.84 99.2693 129.392 96.248C131.944 93.1973 135.244 91.672 139.292 91.672C143.31 91.672 146.581 93.1827 149.104 96.204C151.656 99.2253 152.932 103.024 152.932 107.6C152.932 112.147 151.656 115.945 149.104 118.996ZM134.364 114.64C135.625 116.488 137.268 117.412 139.292 117.412C141.316 117.412 142.929 116.503 144.132 114.684C145.364 112.836 145.98 110.475 145.98 107.6C145.98 104.784 145.349 102.452 144.088 100.604C142.826 98.7267 141.198 97.788 139.204 97.788C137.209 97.788 135.596 98.712 134.364 100.56C133.132 102.379 132.516 104.725 132.516 107.6C132.516 110.445 133.132 112.792 134.364 114.64ZM167.648 127.312V122.868C163.747 122.369 160.285 120.976 157.264 118.688L160.696 113.672C163.219 115.579 165.609 116.767 167.868 117.236V110.24C164.583 109.36 162.177 108.216 160.652 106.808C159.156 105.371 158.408 103.376 158.408 100.824C158.408 98.4187 159.244 96.4533 160.916 94.928C162.588 93.4027 164.832 92.4933 167.648 92.2V89.648H172.224V92.288C175.187 92.6987 177.915 93.784 180.408 95.544L177.46 100.692C175.583 99.4307 173.764 98.5653 172.004 98.096V104.74C175.377 105.649 177.812 106.852 179.308 108.348C180.804 109.815 181.552 111.795 181.552 114.288C181.552 116.693 180.701 118.659 179 120.184C177.328 121.709 175.069 122.633 172.224 122.956V127.312H167.648ZM167.868 103.64V97.7C165.844 97.964 164.832 98.9027 164.832 100.516C164.832 101.22 165.037 101.821 165.448 102.32C165.888 102.789 166.695 103.229 167.868 103.64ZM172.004 117.456C174.087 117.133 175.128 116.165 175.128 114.552C175.128 113.789 174.893 113.173 174.424 112.704C173.984 112.205 173.177 111.736 172.004 111.296V117.456ZM194.729 118.468V110.548H186.765V104.476H194.729V96.556H200.977V104.476H208.941V110.548H200.977V118.468H194.729Z" fill="#FF5B62"/>
</svg>
